<svg class="animated" id="freepik_stories-jazz-saxophonist" xmlns="http://www.w3.org/2000/svg" viewBox="0 0 500 500" version="1.1" xmlns:xlink="http://www.w3.org/1999/xlink" xmlns:svgjs="http://svgjs.com/svgjs"><style>svg#freepik_stories-jazz-saxophonist:not(.animated) .animable {opacity: 0;}svg#freepik_stories-jazz-saxophonist.animated #freepik--Musical_notes--inject-64 {animation: 3s Infinite  linear floating;animation-delay: 0s;}            @keyframes floating {                0% {                    opacity: 1;                    transform: translateY(0px);                }                50% {                    transform: translateY(-10px);                }                100% {                    opacity: 1;                    transform: translateY(0px);                }            }        </style><g id="freepik--background-simple--inject-64" class="animable" style="transform-origin: 243.457px 273.182px;"><path d="M254,380.71l-1.14-2.11c-9.57-17.78-8.94-39.38,2.27-55.96,1.44-2.13,3.04-4.16,4.78-6.06,12.55-13.68,32.4-20.34,50.88-17.07,10.87,1.92,21.68,7.03,32.46,4.89,14.03-2.78,22.51-16.53,29.32-28.99,6.82-12.46,15.33-26.2,29.38-28.92,8.8-1.7,17.98,1.51,25.5,6.49,19.89,13.16,29.83,38.26,28.26,61.82s-13.36,45.46-29.08,63.01c-22.03,24.59-53.07,42.03-86.29,43.95-33.23,1.92-68.09-13.16-86.33-41.05Z" style="fill: rgb(245, 245, 245); transform-origin: 351.018px 333.977px;" id="elu5q6pinmfea" class="animable"></path><path d="M74.12,149.7l1.83-.51c15.46-4.26,32.07,.05,42.91,11.65,1.39,1.49,2.68,3.09,3.84,4.77,8.37,12.14,10.01,28.68,4.22,42.4-3.41,8.07-9.28,15.54-9.53,24.26-.33,11.35,8.82,20.34,17.26,27.82,8.44,7.48,17.57,16.5,17.19,27.85-.24,7.11-4.35,13.65-9.53,18.59-13.71,13.07-34.9,16.33-52.85,10.94-17.96-5.39-32.83-18.38-43.63-33.65-15.14-21.4-23.15-48.51-18.76-74.57,4.39-26.06,22.22-50.38,47.04-59.57Z" style="fill: rgb(245, 245, 245); transform-origin: 88.8624px 233.768px;" id="el5jokl63zuvf" class="animable"></path><circle cx="422.43" cy="163.05" r="38.61" style="fill: rgb(245, 245, 245); transform-origin: 422.43px 163.05px;" id="el386v7xtny57" class="animable"></circle></g><g id="freepik--Floor--inject-64" class="animable" style="transform-origin: 250px 480.44px;"><path d="M458.56,480.44c0,.14-93.38,.26-208.55,.26s-208.57-.12-208.57-.26,93.36-.26,208.57-.26,208.55,.12,208.55,.26Z" style="fill: rgb(38, 50, 56); transform-origin: 250px 480.44px;" id="elp77s7eqa79j" class="animable"></path></g><g id="freepik--Plant--inject-64" class="animable" style="transform-origin: 94.92px 400.168px;"><g id="elqwm9oeqom3a" class="animable" style="transform-origin: 94.92px 400.168px;"><g id="elsq239fr2d" class="animable" style="transform-origin: 94.92px 381.308px;"><path d="M95.36,442.72s-4.41-30.33-4.04-47.98c.37-17.65-.02-37.51-.02-37.51h2.03s-1.38,35.03,.12,56.16c1.5,21.11,5.44,29.33,5.44,29.33h-3.53" style="fill: rgb(38, 50, 56); transform-origin: 95.094px 399.975px;" id="elv5n02fzsjfm" class="animable"></path><path d="M108.51,323.1c-.41-1.04-.91-2.12-1.85-2.71-1.29-.82-2.98-.48-4.42,.03-6.14,2.17-11.59,13.63-14.07,19.65l8.16,27.48c14.72-13.66,17.27-31.57,12.19-44.45Z" style="fill: rgb(69, 90, 100); transform-origin: 99.54px 343.723px;" id="elp72a09l2xo" class="animable"></path><path d="M106.18,321.5s-.03,.13-.12,.36c-.1,.26-.24,.59-.4,1-.36,.86-.86,2.12-1.46,3.68-1.2,3.12-2.73,7.48-4.1,12.4-1.36,4.92-2.3,9.45-2.88,12.74-.29,1.65-.51,2.98-.65,3.91-.07,.43-.13,.78-.17,1.06-.04,.24-.07,.37-.08,.37-.01,0,0-.13,.02-.38,.03-.28,.07-.64,.11-1.07,.1-.93,.28-2.27,.54-3.93,.52-3.31,1.42-7.86,2.79-12.79,1.37-4.93,2.94-9.29,4.2-12.4,.63-1.55,1.16-2.8,1.56-3.65,.19-.4,.34-.72,.46-.98,.11-.22,.17-.34,.18-.33Z" style="fill: rgb(38, 50, 56); transform-origin: 101.248px 339.255px;" id="elx1dp1yotxq9" class="animable"></path><path d="M92.69,374.14c-7.64-4.22-12.15-12.17-12.57-20.9-.29-6.1,1.58-12.08,3.7-17.81,.18-.5,.4-1.03,.86-1.29,.64-.36,1.44-.04,2.08,.32,5.56,3.16,8.92,9.19,10.71,15.33,1.19,4.08,1.81,8.39,1.26,12.61-.55,4.22-2.96,8.81-6.05,11.73" style="fill: rgb(69, 90, 100); transform-origin: 89.5113px 354.061px;" id="el6dormrowkkv" class="animable"></path><path d="M92.69,374.14s-.02-.13-.03-.37c0-.28-.01-.63-.02-1.05,0-.92-.04-2.24-.11-3.87-.15-3.27-.58-7.77-1.42-12.7-.85-4.92-1.88-9.33-2.64-12.52-.37-1.56-.68-2.84-.9-3.77-.1-.42-.17-.76-.24-1.03-.05-.24-.07-.36-.06-.36,.01,0,.05,.12,.13,.35,.08,.27,.18,.6,.3,1.01,.25,.88,.6,2.16,1.01,3.75,.82,3.17,1.89,7.58,2.74,12.52,.85,4.94,1.24,9.46,1.33,12.74,.04,1.64,.05,2.97,0,3.88-.02,.43-.03,.78-.04,1.06-.01,.24-.03,.37-.04,.37Z" style="fill: rgb(38, 50, 56); transform-origin: 90.0407px 356.31px;" id="el1l4cgdr9fiw" class="animable"></path><g id="el99w6qrr4juu"><g style="opacity: 0.3; transform-origin: 89.5113px 354.061px;" class="animable" id="elhu6vm4wsbrm"><path d="M92.69,374.14c-7.64-4.22-12.15-12.17-12.57-20.9-.29-6.1,1.58-12.08,3.7-17.81,.18-.5,.4-1.03,.86-1.29,.64-.36,1.44-.04,2.08,.32,5.56,3.16,8.92,9.19,10.71,15.33,1.19,4.08,1.81,8.39,1.26,12.61-.55,4.22-2.96,8.81-6.05,11.73" id="elxd4b1ibkth" class="animable" style="transform-origin: 89.5113px 354.061px;"></path></g></g><path d="M101.32,420.55c7.52,1.65,13.72,6.96,20.98,9.54,4.8,1.71,10.23,2.31,14.07,5.67-.92-2.32-3.1-3.87-5.22-5.19-5.97-3.73-12.36-6.78-19.01-9.08-3.41-1.18-7.12-2.16-10.6-1.19" style="fill: rgb(69, 90, 100); transform-origin: 118.845px 427.833px;" id="elkk46ww4cerc" class="animable"></path><path d="M90.44,427.25c-9.42-.15-19.34-8.17-28.72-8.65,9.82-3.17,23.87-.58,28.72,8.65" style="fill: rgb(69, 90, 100); transform-origin: 76.08px 422.28px;" id="eli5gzpfnde9" class="animable"></path><path d="M94.12,404.65c4.78-1.72,10.04-1.81,15.06-1.03,5.03,.78,9.88,2.39,14.71,4-.48-3.27-3.13-5.73-5.62-7.9-1.87-1.64-3.76-3.29-5.91-4.54-2.15-1.25-4.6-2.1-7.08-2-3,.13-5.85,1.67-7.82,3.94-1.97,2.27-3.02,4.55-3.35,7.53" style="fill: rgb(69, 90, 100); transform-origin: 109px 400.396px;" id="elxbpb8n1of7a" class="animable"></path><path d="M74.78,394.25c-5.93-5.06-14.92-4.57-22.71-4.39,11.99,5.73,24.9,13.59,35.22,21.95,.32-5.51-5.02-11.16-12.51-17.56Z" style="fill: rgb(69, 90, 100); transform-origin: 69.6868px 400.784px;" id="eloyfon33kmjd" class="animable"></path><g id="eld9som1c2yw7"><g style="opacity: 0.3; transform-origin: 69.6868px 400.784px;" class="animable" id="elj5mjsg5dhas"><path d="M74.78,394.25c-5.93-5.06-14.92-4.57-22.71-4.39,11.99,5.73,24.9,13.59,35.22,21.95,.32-5.51-5.02-11.16-12.51-17.56Z" id="el8vzmwfmmitb" class="animable" style="transform-origin: 69.6868px 400.784px;"></path></g></g><path d="M96.79,387.26c2.98-1.99,6-3.88,9.12-5.3,3.12-1.42,6.03-3.68,9.05-5.31,3.91-2.12,7.3-5.06,10.89-7.68,3.59-2.62,7.53-4.99,11.92-5.69-3.58-.74-7.32-.34-10.85,.63-3.53,.96-6.88,2.47-10.21,3.97-4.63,2.08-9.33,4.22-13.12,7.6-3.78,3.38-7.2,6.72-6.8,11.78" style="fill: rgb(69, 90, 100); transform-origin: 117.264px 375.079px;" id="el9w8hclv7r6r" class="animable"></path><path d="M122.12,427.25s-.11-.03-.3-.13c-.22-.12-.49-.26-.82-.43-.71-.38-1.73-.94-3.01-1.58-.64-.34-1.34-.69-2.1-1.04-.76-.38-1.58-.75-2.45-1.12-1.74-.74-3.68-1.52-5.8-2.02-2.11-.52-4.22-.63-6.04-.15-.92,.22-1.79,.44-2.56,.76-.77,.31-1.47,.68-2.07,1.06-1.21,.76-2.05,1.57-2.6,2.15-.55,.58-.81,.94-.84,.92,0,0,.05-.1,.17-.28,.12-.18,.31-.43,.57-.73,.52-.61,1.35-1.46,2.57-2.26,.6-.4,1.3-.79,2.09-1.12,.79-.34,1.67-.58,2.6-.81,1.87-.51,4.05-.4,6.19,.13,2.15,.51,4.11,1.3,5.85,2.07,.87,.39,1.69,.77,2.44,1.16,.76,.37,1.46,.73,2.09,1.08,1.27,.67,2.27,1.27,2.97,1.68,.32,.19,.58,.35,.79,.48,.18,.11,.27,.18,.26,.19Z" style="fill: rgb(38, 50, 56); transform-origin: 107.825px 423.7px;" id="ell8bx14w26lg" class="animable"></path><path d="M83.41,422.59s.22,.04,.59,.17c.37,.13,.9,.35,1.54,.67,1.27,.63,2.94,1.69,4.5,3.19,1.56,1.51,2.69,3.13,3.37,4.37,.34,.62,.59,1.14,.73,1.51,.15,.37,.22,.57,.2,.58-.05,.02-.41-.77-1.13-1.97-.72-1.2-1.86-2.77-3.4-4.25-1.54-1.47-3.16-2.55-4.38-3.22-1.22-.68-2.04-.99-2.01-1.05Z" style="fill: rgb(38, 50, 56); transform-origin: 88.8767px 427.835px;" id="elsxjyaim21zl" class="animable"></path><path d="M62.56,393.77s.14,.03,.4,.12c.29,.1,.67,.24,1.13,.4,.5,.19,1.1,.41,1.78,.66,.69,.26,1.45,.64,2.3,1.02,3.39,1.54,7.91,4.13,12.27,7.82,2.15,1.87,4.09,3.77,5.72,5.63,1.62,1.86,2.99,3.62,4.06,5.14,1.08,1.52,1.89,2.79,2.45,3.67,.26,.41,.48,.75,.64,1.01,.15,.23,.22,.36,.21,.36,0,0-.1-.11-.26-.33-.16-.22-.4-.55-.7-.98-.59-.86-1.44-2.1-2.53-3.61-1.09-1.51-2.47-3.24-4.1-5.08-1.63-1.84-3.57-3.72-5.71-5.58-4.33-3.66-8.8-6.27-12.15-7.86-.84-.39-1.59-.78-2.27-1.06-.67-.27-1.26-.51-1.76-.71-.45-.19-.82-.34-1.11-.46-.25-.11-.38-.17-.38-.18Z" style="fill: rgb(38, 50, 56); transform-origin: 78.0355px 406.675px;" id="el2glb5lbjxum" class="animable"></path><path d="M108.26,399.35s-.27-.01-.75-.1l-.87-.16c-.34-.07-.73-.07-1.16-.11-1.69-.12-4.16,.02-6.48,1.28-1.17,.59-2.15,1.39-2.95,2.19-.81,.79-1.43,1.62-1.89,2.34-.95,1.45-1.24,2.49-1.3,2.47-.02,0,.03-.27,.19-.73,.17-.46,.44-1.12,.9-1.86,.45-.75,1.06-1.61,1.88-2.43,.81-.83,1.81-1.66,3.01-2.27,2.39-1.3,4.94-1.4,6.65-1.22,.43,.06,.83,.08,1.17,.16l.86,.22c.47,.12,.73,.2,.72,.22Z" style="fill: rgb(38, 50, 56); transform-origin: 100.558px 402.971px;" id="elrvi39owde2" class="animable"></path><path d="M117.73,369.98s-.12,.09-.36,.22c-.27,.15-.62,.34-1.05,.57-.91,.49-2.23,1.22-3.83,2.16-1.59,.95-3.46,2.13-5.46,3.55-1.99,1.43-4.12,3.09-6.09,5.11-.97,1.01-1.87,2.07-2.49,3.23-.62,1.19-1.21,2.33-1.75,3.43-1.09,2.2-1.98,4.22-2.62,5.96-.64,1.74-1.04,3.19-1.27,4.2-.24,1.01-.33,1.58-.36,1.57-.01,0,0-.14,.04-.42,.03-.27,.09-.67,.2-1.18,.2-1.02,.56-2.49,1.18-4.25,.62-1.76,1.49-3.8,2.56-6.02,.54-1.11,1.12-2.26,1.74-3.45,.65-1.21,1.56-2.28,2.54-3.31,2-2.04,4.15-3.7,6.16-5.12,2.01-1.42,3.91-2.57,5.52-3.5,1.62-.92,2.95-1.61,3.89-2.07,.44-.21,.8-.38,1.08-.52,.25-.11,.38-.17,.39-.16Z" style="fill: rgb(38, 50, 56); transform-origin: 105.098px 384.98px;" id="elf38rtktszd" class="animable"></path><path d="M91.31,398.51s-.09-.28-.19-.79c-.11-.58-.25-1.31-.41-2.18-.36-1.83-.91-4.36-1.78-7.07-.87-2.71-1.92-5.08-2.69-6.78-.37-.8-.67-1.48-.92-2.02-.21-.48-.32-.75-.3-.76,.02-.01,.17,.24,.42,.7,.25,.46,.6,1.13,1.02,1.97,.83,1.68,1.92,4.04,2.8,6.78,.88,2.73,1.4,5.28,1.7,7.13,.15,.93,.25,1.68,.31,2.2,.06,.52,.08,.81,.06,.81Z" style="fill: rgb(38, 50, 56); transform-origin: 88.1776px 388.71px;" id="elk2w8aymtet" class="animable"></path><path d="M90.62,377.07c-.24-3.56-1.4-7.02-3.06-10.17-4.57-8.65-13.17-15.06-22.76-16.97,7.02,10.47,14.05,20.94,21.07,31.41l2.72,5.61c1.86-3.05,2.27-6.31,2.03-9.87Z" style="fill: rgb(69, 90, 100); transform-origin: 77.7411px 368.44px;" id="elzl3ruh0rvd" class="animable"></path></g><g id="elh174xremprv" class="animable" style="transform-origin: 96.155px 459.7px;"><rect x="66.43" y="438.96" width="59.93" height="10.62" style="fill: #F2CF63; transform-origin: 96.395px 444.27px;" id="eldzozg05bmr9" class="animable"></rect><polygon points="70.91 447.48 78.11 480.44 113.58 480.44 121.88 447.48 70.91 447.48" style="fill: #F2CF63; transform-origin: 96.395px 463.96px;" id="el4quw70r7rx4" class="animable"></polygon><path d="M126.33,449.6c0,.12-13.52,.21-30.19,.21s-30.19-.09-30.19-.21,13.51-.21,30.19-.21,30.19,.09,30.19,.21Z" style="fill: rgb(38, 50, 56); transform-origin: 96.14px 449.6px;" id="elnce37alwxac" class="animable"></path></g></g></g><g id="freepik--Musical_notes--inject-64" class="animable" style="transform-origin: 250.435px 140.8px;"><g id="elbccmnz688zi" class="animable" style="transform-origin: 245.047px 154.764px;"><g id="elxgv0lnujbss" class="animable" style="transform-origin: 226.982px 102.508px;"><path d="M298.19,115.69c-10.78-5.74-23.43-7.22-35.62-9.28-18.35-3.09-36.67-7.82-52.6-16.92-5.98-3.42-12.25-8.97-10.8-15.41,.98-4.34,5.29-7.34,9.7-8.88s9.19-2.04,13.58-3.67c3.66-1.36,7.45-5.24,5.2-8.27-1.13-1.52-3.28-1.96-5.23-2.23-25.67-3.59-51.45,1.82-71,13.98-7.56,4.7-12.55,12.78-12.95,21.68-.23,5.1,.98,10.05,3.94,13.68,6.77,8.29,17.98,12.16,28.84,14.35,30.83,6.24,63.08,2.27,94.19,7.14,9.52,1.49,20.02,4.62,24.34,12.73,1.86,3.49,2.3,7.47,3.49,11.2,1.19,3.74,3.5,7.55,7.41,8.85,6.49,2.16,13.11-4.05,14.44-10.4,2.38-11.43-6.16-22.81-16.94-28.55Z" style="fill: #F2CF63; transform-origin: 226.982px 102.508px;" id="elh3nph97h3ls" class="animable"></path><g id="elhsbbjr5cm4e"><g style="opacity: 0.8; transform-origin: 226.982px 102.508px;" class="animable" id="el69muzk5y0eu"><path d="M298.19,115.69c-10.78-5.74-23.43-7.22-35.62-9.28-18.35-3.09-36.67-7.82-52.6-16.92-5.98-3.42-12.25-8.97-10.8-15.41,.98-4.34,5.29-7.34,9.7-8.88s9.19-2.04,13.58-3.67c3.66-1.36,7.45-5.24,5.2-8.27-1.13-1.52-3.28-1.96-5.23-2.23-25.67-3.59-51.45,1.82-71,13.98-7.56,4.7-12.55,12.78-12.95,21.68-.23,5.1,.98,10.05,3.94,13.68,6.77,8.29,17.98,12.16,28.84,14.35,30.83,6.24,63.08,2.27,94.19,7.14,9.52,1.49,20.02,4.62,24.34,12.73,1.86,3.49,2.3,7.47,3.49,11.2,1.19,3.74,3.5,7.55,7.41,8.85,6.49,2.16,13.11-4.05,14.44-10.4,2.38-11.43-6.16-22.81-16.94-28.55Z" style="fill: rgb(255, 255, 255); transform-origin: 226.982px 102.508px;" id="el88o9i6acpq4" class="animable"></path></g></g></g><g id="elkthf3s6njsq" class="animable" style="transform-origin: 321.539px 228.013px;"><path d="M295.21,259.58c1.12,0,2.14-.69,2.71-1.65,2.87-4.85,8.52-5.72,14.26-6.94,12.35-2.62,23.74-9.53,31.78-19.26,6.14-7.44,10.32-18.13,5.77-26.63-4.5-8.4-16.43-10.86-24.98-6.64-8.54,4.22-13.7,13.52-15.16,22.94-1.14,7.33-.7,15.75-5.97,20.98-2.61,2.59-6.23,3.91-9,6.33-2.77,2.42-4.46,6.95-2.01,9.69,0,0,1.02,1.2,2.59,1.19Z" style="fill: #F2CF63; transform-origin: 321.539px 228.013px;" id="elsxqkeyloa6g" class="animable"></path><g id="eluslbd2j18e"><g style="opacity: 0.8; transform-origin: 321.539px 228.013px;" class="animable" id="eltlgiwkchmrm"><path d="M295.21,259.58c1.12,0,2.14-.69,2.71-1.65,2.87-4.85,8.52-5.72,14.26-6.94,12.35-2.62,23.74-9.53,31.78-19.26,6.14-7.44,10.32-18.13,5.77-26.63-4.5-8.4-16.43-10.86-24.98-6.64-8.54,4.22-13.7,13.52-15.16,22.94-1.14,7.33-.7,15.75-5.97,20.98-2.61,2.59-6.23,3.91-9,6.33-2.77,2.42-4.46,6.95-2.01,9.69,0,0,1.02,1.2,2.59,1.19Z" style="fill: rgb(255, 255, 255); transform-origin: 321.539px 228.013px;" id="elinman1vofx" class="animable"></path></g></g></g><g id="el8ugmdolaadk" class="animable" style="transform-origin: 323.16px 170.67px;"><path d="M330.78,170.67c0,4.21-3.41,7.62-7.62,7.62s-7.62-3.41-7.62-7.62,3.41-7.62,7.62-7.62,7.62,3.41,7.62,7.62Z" style="fill: #F2CF63; transform-origin: 323.16px 170.67px;" id="eldp527imfgk" class="animable"></path><g id="el3x9rcq1qzpy"><path d="M330.78,170.67c0,4.21-3.41,7.62-7.62,7.62s-7.62-3.41-7.62-7.62,3.41-7.62,7.62-7.62,7.62,3.41,7.62,7.62Z" style="fill: rgb(255, 255, 255); opacity: 0.8; transform-origin: 323.16px 170.67px;" class="animable" id="el5sjt7ngia1h"></path></g></g><g id="elifenwzigfcc" class="animable" style="transform-origin: 164.3px 133.29px;"><circle cx="164.3" cy="133.29" r="5" style="fill: #F2CF63; transform-origin: 164.3px 133.29px;" id="elogfvlutmi6" class="animable"></circle><g id="elkpyjxsska7"><circle cx="164.3" cy="133.29" r="5" style="fill: rgb(255, 255, 255); opacity: 0.8; transform-origin: 164.3px 133.29px;" class="animable" id="el552k3jltjz4"></circle></g></g></g><g id="el1ylh16nwv8x" class="animable" style="transform-origin: 256.27px 140.48px;"><g id="ell6syf31ymw" class="animable" style="transform-origin: 321.29px 214.364px;"><path d="M323.98,222.08c-.23,1.83-1.9,3.13-3.74,2.9-1.83-.23-3.13-1.9-2.9-3.74,.23-1.83,1.9-3.13,3.74-2.9,1.83,.23,3.13,1.9,2.9,3.74Z" style="fill: rgb(38, 50, 56); transform-origin: 320.66px 221.66px;" id="el9o1mq0it25a" class="animable"></path><path d="M323.64,220.92c-.18,.1-1.99-2.92-3.5-6.95-1.5-4.02-2.68-7.27-2.52-7.35,.2-.1,1.71,3.07,3.2,7.08,1.5,4,2.99,7.12,2.82,7.22Z" style="fill: rgb(38, 50, 56); transform-origin: 320.629px 213.77px;" id="elsskm7mivcqr" class="animable"></path><path d="M324.2,203.74c.17,.08-.75,1.72-2.77,2.68-2.01,.98-3.87,.67-3.82,.48,0-.22,1.69-.26,3.5-1.15,1.82-.86,2.91-2.15,3.09-2.02Z" style="fill: rgb(38, 50, 56); transform-origin: 320.914px 205.411px;" id="el1t3qo1ji0nb" class="animable"></path><path d="M325.24,207.04c.19,.07-.67,1.74-2.7,2.53-2.03,.82-3.79,.18-3.7,0,.04-.21,1.65,.04,3.43-.69,1.79-.69,2.8-1.98,2.97-1.85Z" style="fill: rgb(38, 50, 56); transform-origin: 322.051px 208.499px;" id="elr1x5eoxgqeq" class="animable"></path></g><g id="eldsnd3op5wem" class="animable" style="transform-origin: 187.26px 56.4386px;"><path d="M189.95,64.16c-.23,1.83-1.9,3.13-3.74,2.9-1.83-.23-3.13-1.9-2.9-3.74,.23-1.83,1.9-3.13,3.74-2.9,1.83,.23,3.13,1.9,2.9,3.74Z" style="fill: rgb(38, 50, 56); transform-origin: 186.63px 63.74px;" id="elzjyef63slwb" class="animable"></path><path d="M189.61,62.99c-.18,.1-1.99-2.92-3.5-6.95-1.5-4.02-2.68-7.27-2.52-7.35,.2-.1,1.71,3.07,3.2,7.08,1.5,4,2.99,7.12,2.82,7.22Z" style="fill: rgb(38, 50, 56); transform-origin: 186.599px 55.8401px;" id="el3wxcash0s1g" class="animable"></path><path d="M190.17,45.81c.17,.08-.75,1.72-2.77,2.68-2.01,.98-3.87,.67-3.82,.48,0-.22,1.69-.26,3.5-1.15,1.82-.86,2.91-2.15,3.09-2.02Z" style="fill: rgb(38, 50, 56); transform-origin: 186.884px 47.481px;" id="el6p132s8yrnk" class="animable"></path><path d="M191.21,49.12c.19,.07-.67,1.74-2.7,2.53-2.03,.82-3.79,.18-3.7,0,.04-.21,1.65,.04,3.43-.69,1.79-.69,2.8-1.98,2.97-1.85Z" style="fill: rgb(38, 50, 56); transform-origin: 188.021px 50.5794px;" id="elvs12mlmj6o8" class="animable"></path></g><g id="elrq293scsk9p" class="animable" style="transform-origin: 351.655px 196.428px;"><path d="M349.33,207.15c-1.56,2.07-4.51,2.48-6.58,.92-2.07-1.56-2.48-4.51-.92-6.58,1.56-2.07,4.51-2.48,6.58-.92,2.07,1.56,2.48,4.51,.92,6.58Z" style="fill: rgb(38, 50, 56); transform-origin: 345.58px 204.32px;" id="elbaycqx6l5e" class="animable"></path><path d="M349.73,205.49c-.29,0-.38-4.95,.59-10.93,.98-5.96,1.81-10.74,2.06-10.72,.31,.02-.06,4.94-1.04,10.88-.96,5.93-1.33,10.77-1.61,10.77Z" style="fill: rgb(38, 50, 56); transform-origin: 351.01px 194.665px;" id="elif3vwhbypc" class="animable"></path><path d="M362.42,184.92c.15,.22-2.12,1.58-5.25,1.34-3.13-.21-5.18-1.88-5-2.08,.15-.26,2.25,.87,5.08,1.05,2.82,.23,5.06-.59,5.17-.3Z" style="fill: rgb(38, 50, 56); transform-origin: 357.293px 185.215px;" id="elbahn2vyy31q" class="animable"></path><path d="M361.39,189.68c.18,.21-2.03,1.66-5.06,1.2-3.04-.42-4.75-2.43-4.52-2.58,.19-.23,1.99,1.2,4.67,1.56,2.67,.42,4.79-.46,4.92-.18Z" style="fill: rgb(38, 50, 56); transform-origin: 356.595px 189.622px;" id="elr3bwhdg46k" class="animable"></path></g><g id="elktg6hu0u4d" class="animable" style="transform-origin: 326.959px 126.869px;"><path d="M325.33,134.37c-1.09,1.45-3.16,1.74-4.6,.64-1.45-1.09-1.74-3.16-.64-4.6,1.09-1.45,3.16-1.74,4.6-.64,1.45,1.09,1.74,3.16,.64,4.6Z" style="fill: rgb(38, 50, 56); transform-origin: 322.71px 132.39px;" id="elpd0x65vrkth" class="animable"></path><path d="M325.61,133.21c-.2,0-.27-3.46,.41-7.65,.69-4.17,1.27-7.52,1.44-7.5,.22,.02-.04,3.46-.73,7.61-.67,4.15-.93,7.54-1.13,7.54Z" style="fill: rgb(38, 50, 56); transform-origin: 326.504px 125.635px;" id="elpxd2n4b10xr" class="animable"></path><path d="M334.49,118.82c.11,.16-1.49,1.1-3.67,.93-2.19-.15-3.63-1.32-3.5-1.46,.11-.18,1.57,.61,3.55,.74,1.98,.16,3.54-.41,3.62-.21Z" style="fill: rgb(38, 50, 56); transform-origin: 330.904px 119.017px;" id="el507s9iop5u4" class="animable"></path><path d="M333.76,122.15c.13,.15-1.42,1.16-3.54,.84-2.13-.29-3.33-1.7-3.16-1.81,.14-.16,1.39,.84,3.26,1.09,1.87,.29,3.36-.32,3.44-.12Z" style="fill: rgb(38, 50, 56); transform-origin: 330.406px 122.108px;" id="elxl0tjyjxmq" class="animable"></path></g><g id="el3we6zi5svre" class="animable" style="transform-origin: 211.62px 113.14px;"><path d="M212.86,120.86c-.55,1.73-2.4,2.68-4.13,2.13-1.73-.55-2.68-2.4-2.13-4.13,.55-1.73,2.4-2.68,4.13-2.13,1.73,.55,2.68,2.4,2.13,4.13Z" style="fill: rgb(38, 50, 56); transform-origin: 209.73px 119.86px;" id="elfljd4y2pglr" class="animable"></path><path d="M212.74,119.67c-.19,.07-1.4-3.18-2.14-7.35-.73-4.16-1.29-7.51-1.11-7.56,.21-.06,1.1,3.28,1.83,7.43,.73,4.14,1.61,7.42,1.42,7.49Z" style="fill: rgb(38, 50, 56); transform-origin: 211.111px 112.22px;" id="elbqe5ur6xzjj" class="animable"></path><path d="M216.37,103.15c.15,.11-1.04,1.53-3.16,2.1-2.12,.58-3.86-.05-3.78-.22,.04-.21,1.69,.05,3.6-.48,1.92-.5,3.21-1.56,3.35-1.4Z" style="fill: rgb(38, 50, 56); transform-origin: 212.905px 104.312px;" id="elsym7erznfq" class="animable"></path><path d="M216.78,106.53c.17,.1-.96,1.56-3.07,1.96-2.11,.43-3.7-.51-3.58-.66,.07-.2,1.59,.34,3.44-.05,1.86-.34,3.06-1.41,3.21-1.25Z" style="fill: rgb(38, 50, 56); transform-origin: 213.46px 107.558px;" id="elto1r990m7qa" class="animable"></path></g><g id="eliflwjcau81" class="animable" style="transform-origin: 157.649px 64.2189px;"><path d="M156.02,71.72c-1.09,1.45-3.16,1.74-4.6,.64-1.45-1.09-1.74-3.16-.64-4.61,1.09-1.45,3.16-1.74,4.6-.64,1.45,1.09,1.74,3.16,.64,4.61Z" style="fill: rgb(38, 50, 56); transform-origin: 153.4px 69.735px;" id="elh9fhlgdfhk4" class="animable"></path><path d="M156.3,70.56c-.2,0-.27-3.46,.41-7.65,.69-4.17,1.27-7.52,1.44-7.5,.22,.02-.04,3.46-.73,7.61-.67,4.15-.93,7.54-1.13,7.54Z" style="fill: rgb(38, 50, 56); transform-origin: 157.194px 62.985px;" id="elu4ia3cvhq4r" class="animable"></path><path d="M165.18,56.17c.11,.16-1.49,1.1-3.67,.93-2.19-.15-3.63-1.32-3.5-1.46,.11-.18,1.57,.61,3.55,.74,1.98,.16,3.54-.41,3.62-.21Z" style="fill: rgb(38, 50, 56); transform-origin: 161.594px 56.367px;" id="elfdaepjuin4f" class="animable"></path><path d="M164.46,59.5c.13,.15-1.42,1.16-3.54,.84-2.13-.29-3.33-1.7-3.16-1.81,.14-.16,1.39,.84,3.26,1.09,1.87,.29,3.36-.32,3.44-.12Z" style="fill: rgb(38, 50, 56); transform-origin: 161.106px 59.4575px;" id="elz1arbtc35y" class="animable"></path></g><g id="eld416fe48p76" class="animable" style="transform-origin: 329.095px 248.53px;"><g id="elo5er2jpx5ve" class="animable" style="transform-origin: 328.722px 247.44px;"><path d="M326.7,255c-.89,1.64-2.94,2.25-4.58,1.36s-2.25-2.94-1.36-4.58c.89-1.64,2.94-2.25,4.58-1.36,1.64,.89,2.25,2.94,1.36,4.58Z" style="fill: rgb(38, 50, 56); transform-origin: 323.73px 253.39px;" id="ell7jnrswdsm" class="animable"></path><path d="M326.81,253.78c-.32,.05-1.02-3.47-.97-7.83,.06-4.34,.23-7.82,.53-7.84,.34-.03,.7,3.52,.64,7.84-.05,4.31,.12,7.78-.2,7.83Z" style="fill: rgb(38, 50, 56); transform-origin: 326.427px 245.945px;" id="elnxr663uq6f" class="animable"></path><path d="M337.09,240.29c.12,.25-2.42,1.49-5.81,1.11-1.67-.18-3.14-.81-4.02-1.53-.9-.71-1.13-1.43-1.01-1.5,.15-.1,.58,.37,1.47,.81,.87,.46,2.18,.89,3.7,1.06,3.05,.36,5.58-.3,5.67,.05Z" style="fill: rgb(38, 50, 56); transform-origin: 331.657px 239.914px;" id="elj712fsmfq5o" class="animable"></path></g><path d="M337.43,257.18c-.89,1.64-2.94,2.25-4.58,1.36-1.64-.89-2.25-2.94-1.36-4.58,.89-1.64,2.94-2.25,4.58-1.36,1.64,.89,2.25,2.94,1.36,4.58Z" style="fill: rgb(38, 50, 56); transform-origin: 334.46px 255.57px;" id="el4562oyut46w" class="animable"></path><path d="M337.53,255.96c-.32,.05-1.02-3.47-.97-7.83,.06-4.34,.23-7.82,.53-7.84,.34-.03,.7,3.52,.64,7.84-.05,4.31,.12,7.78-.2,7.83Z" style="fill: rgb(38, 50, 56); transform-origin: 337.147px 248.125px;" id="el9apc0i390hc" class="animable"></path><path d="M337.17,242.59c.16,.26-2.18,1.61-5.38,1.36-3.2-.22-5.32-1.89-5.13-2.12,.17-.3,2.34,.77,5.21,.95,2.87,.23,5.17-.51,5.29-.19Z" style="fill: rgb(38, 50, 56); transform-origin: 331.913px 242.879px;" id="eldynzepci6va" class="animable"></path></g><g id="el997ty5uzt25" class="animable" style="transform-origin: 351.655px 149.852px;"><g id="ele0f46bvwcz6" class="animable" style="transform-origin: 351.454px 148.182px;"><path d="M348.49,157.25c-1.17,1.88-3.64,2.46-5.52,1.29-1.88-1.17-2.46-3.64-1.29-5.52,1.17-1.88,3.64-2.46,5.52-1.29,1.88,1.17,2.46,3.64,1.29,5.52Z" style="fill: rgb(38, 50, 56); transform-origin: 345.085px 155.135px;" id="elvf0hfk57ar" class="animable"></path><path d="M348.7,155.81c-.38,.04-.96-4.18-.6-9.34,.38-5.14,.82-9.25,1.18-9.25,.41,0,.58,4.22,.21,9.34-.36,5.1-.41,9.23-.79,9.26Z" style="fill: rgb(38, 50, 56); transform-origin: 348.841px 146.52px;" id="el12ymp4ycb3wp" class="animable"></path><path d="M361.83,140.55c.12,.3-2.97,1.6-6.96,.9-1.97-.33-3.67-1.18-4.65-2.1-1.01-.9-1.24-1.78-1.09-1.85,.19-.11,.66,.48,1.68,1.06,1,.6,2.52,1.21,4.3,1.51,3.58,.64,6.63,.03,6.72,.46Z" style="fill: rgb(38, 50, 56); transform-origin: 355.461px 139.57px;" id="elbj69dofd8vq" class="animable"></path></g><path d="M361.03,160.59c-1.17,1.88-3.64,2.46-5.52,1.29-1.88-1.17-2.46-3.64-1.29-5.52,1.17-1.88,3.64-2.46,5.52-1.29,1.88,1.17,2.46,3.64,1.29,5.52Z" style="fill: rgb(38, 50, 56); transform-origin: 357.625px 158.475px;" id="elq1v0omlfo3" class="animable"></path><path d="M361.24,159.15c-.38,.04-.96-4.18-.6-9.34,.38-5.14,.82-9.25,1.18-9.25,.41,0,.58,4.22,.21,9.34-.36,5.1-.41,9.23-.79,9.26Z" style="fill: rgb(38, 50, 56); transform-origin: 361.381px 149.86px;" id="elfd754p5hgb6" class="animable"></path><path d="M361.77,143.29c.17,.32-2.7,1.75-6.47,1.23-3.77-.48-6.17-2.61-5.92-2.88,.22-.34,2.71,1.08,6.1,1.5,3.38,.48,6.16-.24,6.28,.15Z" style="fill: rgb(38, 50, 56); transform-origin: 355.57px 143.11px;" id="eltzr941udw8b" class="animable"></path></g><g id="el610wjo88gan" class="animable" style="transform-origin: 176.05px 92.1023px;"><g id="el8fdqexmvj8h" class="animable" style="transform-origin: 175.844px 90.4323px;"><path d="M172.88,99.5c-1.17,1.88-3.64,2.46-5.52,1.29-1.88-1.17-2.46-3.64-1.29-5.52,1.17-1.88,3.64-2.46,5.52-1.29,1.88,1.17,2.46,3.64,1.29,5.52Z" style="fill: rgb(38, 50, 56); transform-origin: 169.475px 97.385px;" id="el5lhl5x74zyg" class="animable"></path><path d="M173.09,98.06c-.38,.04-.96-4.18-.6-9.34,.38-5.14,.82-9.25,1.18-9.25,.41,0,.58,4.22,.21,9.34-.36,5.1-.41,9.23-.79,9.26Z" style="fill: rgb(38, 50, 56); transform-origin: 173.231px 88.77px;" id="eldho3yxe413g" class="animable"></path><path d="M186.22,82.8c.12,.3-2.97,1.6-6.96,.9-1.97-.33-3.67-1.18-4.65-2.1-1.01-.9-1.24-1.78-1.09-1.85,.19-.11,.66,.48,1.68,1.06,1,.6,2.52,1.21,4.3,1.51,3.58,.64,6.63,.03,6.72,.47Z" style="fill: rgb(38, 50, 56); transform-origin: 179.851px 81.8204px;" id="elumt9xu5n84r" class="animable"></path></g><path d="M185.43,102.84c-1.17,1.88-3.64,2.46-5.52,1.29-1.88-1.17-2.46-3.64-1.29-5.52,1.17-1.88,3.64-2.46,5.52-1.29,1.88,1.17,2.46,3.64,1.29,5.52Z" style="fill: rgb(38, 50, 56); transform-origin: 182.025px 100.725px;" id="elfvibzfgxrw" class="animable"></path><path d="M185.64,101.4c-.38,.04-.96-4.18-.6-9.34,.38-5.14,.82-9.25,1.18-9.25,.41,0,.58,4.22,.21,9.34-.36,5.1-.41,9.23-.79,9.26Z" style="fill: rgb(38, 50, 56); transform-origin: 185.781px 92.11px;" id="eltp4ev1gfyus" class="animable"></path><path d="M186.16,85.54c.17,.32-2.7,1.75-6.47,1.23-3.77-.48-6.17-2.61-5.92-2.88,.22-.34,2.71,1.08,6.1,1.5,3.38,.48,6.16-.24,6.28,.15Z" style="fill: rgb(38, 50, 56); transform-origin: 179.96px 85.3603px;" id="elqsarke6jdnp" class="animable"></path></g><g id="elcwhztclevnm" class="animable" style="transform-origin: 222.93px 32.5207px;"><g id="ely1v6i2b69sr" class="animable" style="transform-origin: 222.766px 31.138px;"><path d="M220.29,38.69c-.97,1.56-3.03,2.05-4.59,1.07-1.56-.97-2.04-3.03-1.07-4.59s3.03-2.04,4.59-1.07c1.56,.97,2.04,3.03,1.07,4.59Z" style="fill: rgb(38, 50, 56); transform-origin: 217.46px 36.9322px;" id="eljfskxpy17b" class="animable"></path><path d="M220.47,37.49c-.32,.03-.8-3.48-.5-7.78,.31-4.28,.68-7.69,.98-7.7,.34,0,.48,3.51,.17,7.77-.3,4.24-.34,7.68-.66,7.71Z" style="fill: rgb(38, 50, 56); transform-origin: 220.584px 29.7501px;" id="el0vp7u3r5ib" class="animable"></path><path d="M231.4,24.79c.1,.25-2.47,1.33-5.79,.75-1.64-.28-3.05-.99-3.87-1.74-.84-.75-1.03-1.48-.91-1.54,.15-.09,.55,.4,1.4,.88,.83,.5,2.09,1.01,3.58,1.26,2.98,.53,5.52,.03,5.59,.39Z" style="fill: rgb(38, 50, 56); transform-origin: 226.1px 23.9791px;" id="elb3o4k7de5q5" class="animable"></path></g><path d="M230.73,41.46c-.97,1.56-3.03,2.04-4.59,1.07-1.56-.97-2.05-3.03-1.07-4.59,.97-1.56,3.03-2.05,4.59-1.07,1.56,.97,2.05,3.03,1.07,4.59Z" style="fill: rgb(38, 50, 56); transform-origin: 227.9px 39.6978px;" id="elvzm1vn6gvm" class="animable"></path><path d="M230.91,40.27c-.32,.03-.8-3.48-.5-7.78,.31-4.28,.68-7.7,.98-7.7,.34,0,.48,3.51,.17,7.77-.3,4.24-.34,7.68-.66,7.71Z" style="fill: rgb(38, 50, 56); transform-origin: 231.024px 32.5301px;" id="elvhbtwoq8nj" class="animable"></path><path d="M231.34,27.07c.14,.27-2.24,1.46-5.38,1.03-3.14-.4-5.13-2.17-4.93-2.39,.19-.28,2.26,.9,5.08,1.25,2.82,.4,5.12-.2,5.23,.12Z" style="fill: rgb(38, 50, 56); transform-origin: 226.181px 26.9301px;" id="elm2o345unnym" class="animable"></path></g></g></g><g id="freepik--Character--inject-64" class="animable" style="transform-origin: 252.465px 266.211px;"><g id="elm39b0x2xtso" class="animable" style="transform-origin: 252.465px 266.211px;"><g id="elr9sqo7m5gr" class="animable" style="transform-origin: 261.551px 103.902px;"><path d="M233.56,102.95s-24.6-14.98-7.23-30.32c17.38-15.33,62.64-1.09,69.98,2.68,7.34,3.76,10.1,16.1,.55,23.11-11.8,8.66-16.45,7.09-17.09,7.21-.64,.11-46.21-2.68-46.21-2.68Z" style="fill: rgb(38, 50, 56); transform-origin: 261.551px 85.6722px;" id="elrc6pjc0hm1" class="animable"></path><path d="M285.64,63.57c-.38-2.11-.78-4.27-1.92-6.08-.98-1.55-2.46-2.74-4.09-3.59-5.58-2.94-12.35-1.97-18.5-.58-3.96,.9-7.99,2-11.27,4.4-4.81,3.52-7.33,9.29-9.63,14.79l48.29,7.14c-.96-5.36-1.92-10.71-2.88-16.07Z" style="fill: rgb(38, 50, 56); transform-origin: 264.375px 65.8165px;" id="elrozi2u3qgra" class="animable"></path><path d="M244.11,64.35s7.74-1.37,22.11,0c14.36,1.37,20.48,5.14,20.48,5.14l.58,2.23s-14.12-4.11-22-5c-8.02-.91-21.98-.91-21.98-.91l.82-1.46Z" style="fill: #F2CF63; transform-origin: 265.29px 67.7306px;" id="elyhlw316slg" class="animable"></path><path d="M269.8,57.12c.04,.07-.8,.61-2.26,1.29-1.46,.68-3.54,1.48-5.93,2.07-2.39,.59-4.6,.86-6.21,.94-1.61,.08-2.6,0-2.6-.08,0-.21,3.95-.32,8.65-1.51,4.71-1.15,8.26-2.91,8.35-2.72Z" style="fill: rgb(69, 90, 100); transform-origin: 261.301px 59.2745px;" id="elblrkxrtcbsb" class="animable"></path><g id="elzc32wyzvr2o" class="animable" style="transform-origin: 256.93px 113.753px;"><path d="M276.38,124.23c2.02-5.8,5.22-18.09,7.98-29.24,2.97-12-5.06-17.7-16.77-21.63l-1.16-.39c-12.8-3.47-20.31-.13-23.42,12.76l-14.13,41.65,17.16,28.44,7.25-7,6.59-14.68s12.31,2.12,16.51-9.9Z" style="fill: rgb(174, 116, 97); transform-origin: 256.93px 113.753px;" id="elr5wjwufy3b8" class="animable"></path><path d="M259.87,134.13s-8.2-1.99-14.6-9.8c0,0,.9,9.72,13.31,12.67l1.29-2.87Z" style="fill: rgb(111, 68, 57); transform-origin: 252.57px 130.665px;" id="eldfq85qggofb" class="animable"></path><path d="M277.09,106.11c-.27,.92-1.28,1.45-2.24,1.18-.96-.27-1.53-1.23-1.26-2.15,.27-.92,1.28-1.45,2.24-1.18,.97,.27,1.53,1.23,1.26,2.15Z" style="fill: rgb(38, 50, 56); transform-origin: 275.34px 105.625px;" id="el7pdls6gns73" class="animable"></path><path d="M279.79,100.02c-.29,.15-1.27-1.25-3.13-1.87-1.84-.64-3.52-.14-3.65-.44-.07-.13,.29-.47,1.03-.7,.73-.23,1.86-.32,3.02,.07,1.15,.39,1.98,1.14,2.39,1.77,.42,.63,.48,1.1,.34,1.17Z" style="fill: rgb(38, 50, 56); transform-origin: 276.43px 98.4218px;" id="el6zf2kpjil9g" class="animable"></path><path d="M260.37,99.47c-.27,.92-1.28,1.45-2.24,1.18-.96-.27-1.53-1.23-1.26-2.15,.27-.92,1.28-1.45,2.24-1.18,.97,.27,1.53,1.23,1.26,2.15Z" style="fill: rgb(38, 50, 56); transform-origin: 258.62px 98.985px;" id="el3a033lpje0n" class="animable"></path><path d="M261.45,94.26c-.29,.15-1.27-1.25-3.13-1.87-1.84-.64-3.52-.14-3.65-.44-.06-.13,.29-.47,1.03-.7,.73-.23,1.86-.32,3.01,.07,1.15,.39,1.98,1.14,2.39,1.77,.42,.63,.48,1.1,.34,1.16Z" style="fill: rgb(38, 50, 56); transform-origin: 258.086px 92.6618px;" id="elww7hyamtqo" class="animable"></path><path d="M263.57,110.26c.03-.11,1.25,.08,3.19,.47,.49,.11,.97,.17,1.16-.13,.23-.3,.2-.88,.15-1.51-.06-1.29-.12-2.65-.19-4.07-.22-5.78-.22-10.48,.02-10.48,.23,0,.6,4.68,.83,10.46,.04,1.42,.09,2.78,.13,4.08,0,.6,.1,1.31-.38,1.94-.25,.31-.68,.45-1.01,.43-.33,0-.6-.09-.84-.16-1.91-.53-3.08-.91-3.05-1.02Z" style="fill: rgb(38, 50, 56); transform-origin: 266.219px 102.996px;" id="elkmb5qn04idq" class="animable"></path><path d="M264.23,88.68c-.35,.44-2.12-.42-4.39-.88-2.25-.51-4.22-.46-4.36-1.01-.06-.26,.41-.63,1.28-.88,.87-.25,2.14-.34,3.5-.05,1.35,.3,2.48,.9,3.16,1.49,.69,.59,.96,1.12,.8,1.33Z" style="fill: rgb(38, 50, 56); transform-origin: 259.87px 87.2404px;" id="el53k26nv4hdl" class="animable"></path><path d="M282.08,93.49c-.53,.29-1.89-.65-3.7-1.28-1.79-.68-3.45-.84-3.65-1.4-.08-.27,.3-.61,1.1-.78,.79-.18,2.01-.13,3.25,.32,1.24,.45,2.19,1.19,2.67,1.84,.5,.65,.56,1.15,.32,1.3Z" style="fill: rgb(38, 50, 56); transform-origin: 278.463px 91.7385px;" id="elhgydx4igsl7" class="animable"></path><path d="M240.67,94.27c-.18-.16-8.45-5.48-10.95,2.85-2.5,8.34,6.39,9.13,6.47,8.89,.09-.23,4.48-11.75,4.48-11.75Z" style="fill: rgb(174, 116, 97); transform-origin: 234.973px 99.2474px;" id="elrtvz0eu3ux" class="animable"></path><path d="M234.6,102.1s-.18,.06-.46,.1c-.27,.04-.71-.01-1.09-.3-.78-.59-1.11-2.21-.7-3.72,.21-.77,.58-1.44,1.03-1.96,.44-.53,.96-.84,1.43-.79,.47,.03,.71,.39,.74,.66,.04,.27-.06,.42-.02,.44,.02,.03,.22-.09,.26-.45,.02-.18-.02-.4-.17-.62-.15-.22-.42-.39-.74-.45-.66-.15-1.41,.27-1.9,.84-.53,.56-.97,1.31-1.2,2.17-.45,1.7-.06,3.53,1.04,4.24,.54,.33,1.08,.3,1.39,.18,.32-.13,.42-.3,.4-.33Z" style="fill: rgb(111, 68, 57); transform-origin: 233.696px 98.7515px;" id="eljtexnrrl4z" class="animable"></path></g><path d="M294,84.82c-.87-.24-1.77-.35-2.68-.34,.58-.45,1.17-.9,1.58-1.51,.41-.6,.63-1.39,.38-2.08-.32-.88-1.28-1.35-2.2-1.52-1.28-.24-2.59-.07-3.89-.13-1-.04-1.7-.47-2.63-.96l-.03-.03s-7.92-4.21-24.79-7.28c-13.02-2.37-17.18,8.11-17.18,8.11l-5.09,11.34c-.3,2.06,1.16,3.69,2.04,5.57,.55,1.17,2.07,1.38,3.3,.95,.72-.25,1.19-.94,1.6-1.58,3.72-5.83,7.58-12.15,7.3-19.06,.45-.12,6.65,1.04,6.9,1.04l23.1,5.94c2.16,3.57-1.2,7.63,1.81,8.04,1.15,.37,2.33,.65,3.54,.73,2.04,.15,4.17-.27,5.81-1.48,1.23-.91,2.13-2.31,2.37-3.8,.14-.87-.4-1.72-1.25-1.95Z" style="fill: rgb(38, 50, 56); transform-origin: 266.346px 83.8835px;" id="eleglmewoc2yw" class="animable"></path><path d="M289.11,72.52s-.7-.16-1.92-.56c-1.22-.41-2.99-.96-5.2-1.59-4.41-1.27-10.59-2.71-17.53-3.56-6.95-.84-13.3-.92-17.88-.74-2.29,.08-4.15,.19-5.43,.3-1.28,.09-1.99,.12-2,.08,0-.05,.7-.16,1.97-.34,1.27-.18,3.13-.36,5.43-.51,4.6-.3,10.99-.29,17.98,.55,6.99,.86,13.2,2.38,17.59,3.77,2.2,.69,3.96,1.31,5.15,1.8,1.2,.47,1.85,.76,1.83,.8Z" style="fill: rgb(69, 90, 100); transform-origin: 264.13px 68.9703px;" id="el4kwdzvz84r8" class="animable"></path><g id="elibsiznphxm"><path d="M265.94,98.7c-1.46,3.83-6.53,7.01-10.69,5.43s-5.96-6.82-4.5-10.65c1.46-3.83,5.61-4.79,9.78-3.21,4.16,1.58,6.87,4.61,5.42,8.44Z" style="opacity: 0.3; transform-origin: 258.297px 97.0435px;" class="animable" id="eloxdwoktcns"></path></g><g id="el5c8lpg1oqvg"><path d="M284.64,105.02c-1.2,3.92-6.05,7.43-10.31,6.12-4.26-1.3-6.4-6.42-5.2-10.33,1.2-3.92,5.29-5.15,9.54-3.85,4.26,1.3,7.16,4.14,5.96,8.06Z" style="opacity: 0.3; transform-origin: 276.851px 103.94px;" class="animable" id="elgr27otcgad"></path></g><path d="M270.29,98.84c-.12,.09-.76-.85-1.97-1.27-1.21-.43-2.29-.1-2.33-.24-.02-.06,.22-.24,.67-.35,.45-.12,1.14-.14,1.83,.1,.69,.24,1.21,.69,1.49,1.06,.29,.38,.36,.66,.31,.7Z" style="fill: rgb(38, 50, 56); transform-origin: 268.147px 97.8697px;" id="elblbgsqmx0vk" class="animable"></path><path d="M251.14,92.79c0,.14-2.89,.46-6.47,.71-3.58,.25-6.49,.34-6.5,.19,0-.14,2.88-.46,6.47-.71,3.58-.25,6.49-.34,6.5-.19Z" style="fill: rgb(38, 50, 56); transform-origin: 244.655px 93.24px;" id="elgj4xj3840y6" class="animable"></path><g id="elyy35r99e82"><g style="opacity: 0.3; transform-origin: 292.478px 88.5219px;" class="animable" id="el0mczu5anxhze"><path d="M299.4,83.5c-.52-.41-1.21-.55-1.87-.49-.66,.06-1.29,.3-1.89,.56-3.78,1.65-8.11,3.98-10.88,7.05v2.48c1.79,1.06,4.08,1.25,6.01,.47,1.93-.77,3.47-2.48,4.03-4.48,1.02-.15,2.05-.31,3-.72s1.81-1.11,2.2-2.06c.39-.95,.2-2.18-.6-2.82Z" id="elnq92wwtqpi" class="animable" style="transform-origin: 292.478px 88.5219px;"></path></g></g><g id="el64ylojlj505" class="animable" style="transform-origin: 279.882px 82.6258px;"><path d="M260.44,76.13c.23,2.18,2.22,5.02,4.02,6.01,1.8,.99,4.06,.93,5.82-.16-.34,2.11,1.44,4.09,3.38,4.46,1.94,.37,3.91-.47,5.62-1.53-.27,1.78,.54,3.61,1.8,4.79,1.26,1.17,2.91,1.75,4.56,1.96,1.62,.21,3.35,.06,4.74-.87,1.39-.94,2.31-2.82,1.87-4.52,1.78,1.33,4.45,.75,5.8-1.09,1.35-1.83,1.37-4.59,.25-6.6-1.12-2.01-3.22-3.24-5.37-3.45-2.15-.21-4.32,.54-6.14,1.8-.5-1.96-2.25-3.46-4.12-3.53-1.87-.07-3.72,1.3-4.34,3.22" style="fill: rgb(38, 50, 56); transform-origin: 279.772px 82.5704px;" id="elvcaf4ja6wbk" class="animable"></path><path d="M278.32,76.61s.04-.28,.27-.76c.23-.47,.66-1.16,1.49-1.76,.8-.59,2.11-1.1,3.56-.68,1.41,.39,2.82,1.65,3.31,3.47l-.28-.1c1.4-.98,3.2-1.81,5.26-1.89,2.04-.1,4.32,.73,5.84,2.53,1.53,1.77,2.06,4.53,1.04,6.91-.5,1.18-1.52,2.21-2.8,2.64-1.25,.47-2.79,.36-3.94-.5l.41-.27c.35,1.33-.09,2.83-1,3.91-1,1.23-2.56,1.78-4.02,1.87-1.47,.08-2.92-.15-4.25-.66-1.32-.51-2.51-1.4-3.26-2.57-.75-1.15-1.12-2.55-.92-3.87l.36,.24c-.97,.6-1.99,1.1-3.06,1.4-1.06,.29-2.19,.34-3.21,.02-2.02-.67-3.36-2.71-3.05-4.58l.29,.19c-1.87,1.14-4.04,1.05-5.57,.34-.78-.36-1.4-.88-1.89-1.4-.5-.52-.89-1.05-1.21-1.55-.64-.99-.97-1.87-1.12-2.46-.15-.6-.14-.93-.14-.93,.03,0,.06,.32,.24,.9,.19,.58,.54,1.42,1.2,2.38,.66,.92,1.57,2.12,3.05,2.79,1.46,.65,3.52,.71,5.25-.38l.36-.23-.07,.42c-.27,1.65,.97,3.52,2.8,4.11,.91,.29,1.96,.24,2.96-.04,1-.28,1.98-.77,2.93-1.36l.44-.27-.07,.51c-.17,1.19,.16,2.47,.86,3.53,.69,1.07,1.78,1.88,3.03,2.37,1.25,.48,2.65,.7,4.03,.62,1.37-.09,2.77-.6,3.65-1.69,.82-.98,1.2-2.32,.9-3.45l-.19-.72,.6,.45c.98,.74,2.33,.85,3.45,.43,1.15-.39,2.05-1.29,2.51-2.36,.94-2.17,.47-4.76-.94-6.4-1.4-1.68-3.54-2.49-5.47-2.41-1.96,.06-3.7,.83-5.07,1.76l-.21,.14-.06-.25c-.43-1.69-1.74-2.9-3.05-3.28-1.33-.42-2.58,.03-3.37,.57-.81,.55-1.26,1.2-1.52,1.64-.25,.45-.33,.72-.36,.71Z" style="fill: rgb(69, 90, 100); transform-origin: 279.882px 82.6258px;" id="elo5ofphs02ep" class="animable"></path></g><path d="M275.17,74.46c-.06,0,.35-.66-.1-1.77-.22-.54-.67-1.12-1.38-1.56-.71-.45-1.63-.75-2.68-1.02-2.09-.56-4.66-1.01-7.58-1.01-1.46,0-2.99,.11-4.58,.35-1.57,.26-3.25,.58-4.67,1.49l-.14,.09-.14-.1c-1.63-1.13-3.92-1.46-5.92-.71-2.3,.88-3.86,3.15-4.04,5.4l-.02,.22h-.22c-2.97,.18-5.48,2.17-6.44,4.5-.99,2.35-.64,4.84,.28,6.54l.05,.09-.06,.09c-.29,.46-.34,1.07-.35,1.61-.01,.55,.06,1.06,.12,1.54,.15,.96,.36,1.76,.57,2.41,.21,.64,.41,1.13,.58,1.44,.16,.32,.27,.46,.26,.48,0,0-.15-.12-.34-.43-.2-.3-.43-.78-.67-1.43-.24-.64-.48-1.46-.66-2.43-.08-.49-.16-1.01-.16-1.58,0-.56,.01-1.2,.38-1.81v.18c-1.01-1.77-1.42-4.37-.39-6.88,1-2.49,3.63-4.62,6.82-4.82l-.24,.23c.19-2.44,1.85-4.88,4.36-5.84,2.16-.82,4.62-.46,6.39,.77h-.28c1.54-.98,3.28-1.29,4.87-1.54,1.61-.23,3.18-.34,4.66-.31,2.96,.03,5.57,.53,7.66,1.13,1.05,.3,2,.63,2.73,1.12,.74,.48,1.21,1.13,1.41,1.71,.21,.58,.19,1.08,.11,1.39-.08,.31-.18,.45-.18,.45Z" style="fill: rgb(69, 90, 100); transform-origin: 255.844px 81.5926px;" id="elhrz0viosauu" class="animable"></path></g><g id="elcjy7qliwyi9" class="animable" style="transform-origin: 236.613px 193.815px;"><path d="M220.2,127.6s-37.38,13.04-39.28,15.39c-4.14,5.14,12.09,79.82,11.49,80.12-.41,.2-5.87,17.7-7.42,30.25-.8,6.51,3.14,12.67,9.41,14.61h0l74.19-4.64s4.93-2.23,4.74-10.38c-.55-23.89-6.61-74.3-5.94-76.31,.9-2.7-9.79-37.43-9.79-37.43l-2.12,4.41-25.14-23.96-10.13,7.94Z" style="fill: rgb(224, 224, 224); transform-origin: 226.789px 193.815px;" id="ellirxgkmzv8e" class="animable"></path><path d="M248.82,153.79c0-.13,6.33-8.38,6.33-8.38,0,0,3.14,9.52,2.76,9.52s-1.85,3.18-1.85,3.18h-5.33l-1.9-4.32Z" style="fill: rgb(69, 90, 100); transform-origin: 253.381px 151.76px;" id="elm07q7jl94ea" class="animable"></path><path d="M250.93,199.81c-.31-.86-2.49-30.49-2.11-33.24,.39-2.76,1.9-8.46,1.9-8.46h5.33s4.17,27.06,5.89,34.3,5.34,42.2,4.65,49.26l-7.75,12.57-7.06-18.09-.86-36.34Z" style="fill: rgb(69, 90, 100); transform-origin: 257.726px 206.175px;" id="elyl3sz6oqkd" class="animable"></path><path d="M259.11,146.68c1.2,.73,8.67,3.46,11.85,9.32,3.18,5.86,3.96,21.18,5.09,26.09,1.12,4.92,1.86,22.08,1.86,22.08,0,0,12.86,14.87,13.31,16.57,.45,1.7,3.5,12.86,.36,15.13-3.14,2.27-9.07,5.5-14.68,4.75-5.61-.76-10.06-6.87-10.06-6.87l-5.04-69.62-2.69-17.45Z" style="fill: rgb(224, 224, 224); transform-origin: 276.046px 193.705px;" id="el7ofpqz8m02j" class="animable"></path><path d="M267.49,162.77s.03,.25,.03,.73c0,.53-.02,1.22-.03,2.08-.02,.9-.05,2-.03,3.28,.01,1.28-.02,2.74,.04,4.35,.05,3.22,.23,7.06,.52,11.31,.31,4.25,.74,8.92,1.27,13.81,1.09,9.78,2.22,18.63,2.87,25.05,.33,3.21,.57,5.81,.69,7.61,.06,.86,.1,1.55,.14,2.07,.03,.47,.03,.72,.01,.73-.02,0-.06-.25-.12-.72-.06-.52-.14-1.21-.24-2.06-.21-1.85-.5-4.43-.86-7.59-.74-6.41-1.93-15.24-3.02-25.03-.53-4.9-.95-9.57-1.23-13.83-.26-4.26-.4-8.11-.41-11.34-.03-1.61,.02-3.08,.04-4.36,.01-1.28,.07-2.39,.12-3.29,.05-.86,.09-1.55,.12-2.08,.03-.47,.06-.72,.08-.72Z" style="fill: rgb(38, 50, 56); transform-origin: 270.062px 198.28px;" id="el6ok3m6exp7g" class="animable"></path><path d="M260.07,147.24s.04,.14,.07,.4c.03,.31,.08,.7,.13,1.18,.07,1.04,.19,2.56,0,4.5-.06,.48-.13,.99-.28,1.51-.14,.52-.33,1.07-.7,1.57-.1,.12-.21,.24-.35,.34-.07,.05-.15,.1-.24,.13-.02,0-.06,.01-.09,.02-.01,0-.09,.01-.18-.06-.1-.11-.06-.1-.1-.16-.13-.3-.23-.58-.33-.88-.19-.59-.39-1.21-.59-1.84-.78-2.54-1.61-5.39-2.48-8.5l.43,.07c-1.27,1.91-2.62,3.96-4.28,5.91-1.66,1.95-3.7,3.73-6.05,5.13l-.15,.09-.13-.1-.06-.04c-4.21-2.99-7.64-6.54-10.49-9.94-2.86-3.41-5.14-6.71-6.95-9.53-1.84-2.8-3.47-4.96-4.61-6.45-.55-.71-.99-1.28-1.32-1.71-.3-.39-.46-.6-.44-.61,.01-.01,.2,.17,.52,.54,.33,.37,.8,.92,1.4,1.65,1.19,1.45,2.87,3.59,4.76,6.37,1.86,2.79,4.15,6.05,7.01,9.42,2.86,3.36,6.27,6.88,10.42,9.82l.06,.04h-.28c2.31-1.38,4.29-3.12,5.93-5.03,1.64-1.91,2.99-3.93,4.27-5.84l.29-.43,.14,.5c.86,3.1,1.66,5.97,2.41,8.51,.19,.63,.38,1.24,.56,1.84,.09,.29,.19,.59,.3,.84,0,0,.06,.09,0,.04-.04-.01-.1,.07-.09,.12,0,.11,0-.09,0-.09v-.03s0-.02,0-.02c0,0,0,0,.02,0,.05-.02,.1-.04,.15-.08,.1-.07,.19-.16,.28-.27,.64-.87,.82-1.97,.96-2.9,.23-1.89,.16-3.42,.14-4.45-.02-.48-.04-.87-.05-1.19,0-.27,0-.41,0-.41Z" style="fill: rgb(38, 50, 56); transform-origin: 240.625px 142.58px;" id="elprrmvp6s3lp" class="animable"></path><g id="elaq2s3ti2zgl"><path d="M190.48,212.16c-.09-.46,9.57-36.74,9.14-36.41-.44,.33-12.07,21.08-12.07,21.08l3.06,16" style="opacity: 0.3; transform-origin: 193.592px 194.289px;" class="animable" id="elv5km66195q"></path></g><path d="M256.13,157.61c.08,.11-1.04,.87-2.66,1.04-1.61,.18-2.87-.31-2.82-.44,.04-.15,1.26,.09,2.76-.08,1.5-.15,2.65-.66,2.71-.52Z" style="fill: rgb(38, 50, 56); transform-origin: 253.391px 158.138px;" id="elnz0ir8b2sq" class="animable"></path></g><g id="elgm7yy6wtkxn" class="animable" style="transform-origin: 226.7px 395.305px;"><g id="elghlj7lxrjwh" class="animable" style="transform-origin: 225.59px 317.185px;"><path d="M225.59,324.19s-35.98-3.4-39.02-9.66v-2.5c13.96-2.4,27.03-2.56,39.02,0v12.17Z" style="fill: rgb(69, 90, 100); transform-origin: 206.08px 317.185px;" id="elfwaotybp49" class="animable"></path><path d="M225.59,324.19s34.03-.92,39.02-9.66v-2.5h-39.02v12.17Z" style="fill: rgb(69, 90, 100); transform-origin: 245.1px 318.115px;" id="elh4ijvjdhall" class="animable"></path></g><polygon points="249.18 332.41 297.06 480.44 289.5 480.44 240.79 332.41 249.18 332.41" style="fill: rgb(69, 90, 100); transform-origin: 268.925px 406.425px;" id="els0t0rghlj8" class="animable"></polygon><rect x="223.68" y="318.11" width="8.36" height="74.22" style="fill: rgb(69, 90, 100); transform-origin: 227.86px 355.22px;" id="el7yqnfvukpb" class="animable"></rect><polygon points="204.21 332.41 156.34 480.44 163.9 480.44 212.61 332.41 204.21 332.41" style="fill: rgb(69, 90, 100); transform-origin: 184.475px 406.425px;" id="elazcvuf1b00b" class="animable"></polygon><rect x="223.83" y="332.41" width="8.06" height="148.03" style="fill: rgb(69, 90, 100); transform-origin: 227.86px 406.425px;" id="elw9dkqegylg" class="animable"></rect><rect x="204.21" y="332.41" width="45" height="5.88" style="fill: rgb(69, 90, 100); transform-origin: 226.71px 335.35px;" id="ellwr6s82fi6s" class="animable"></rect><rect x="201.22" y="353.38" width="51.05" height="5.88" style="fill: rgb(69, 90, 100); transform-origin: 226.745px 356.32px;" id="elsmnlohgwr9" class="animable"></rect><polygon points="277.02 439.22 170.73 439.22 174.65 432.63 277.02 432.63 277.02 439.22" style="fill: rgb(69, 90, 100); transform-origin: 223.875px 435.925px;" id="elc0ldje2w7zk" class="animable"></polygon><path d="M237.59,318.69s-.18,.03-.52,.05c-.4,.01-.89,.02-1.49,.04-1.29,.03-3.17,.02-5.48-.04-4.63-.11-11.02-.5-18.02-1.41-7.01-.92-13.29-2.17-17.79-3.25-2.25-.54-4.06-1.01-5.31-1.37l-1.43-.42c-.33-.1-.49-.16-.49-.18,0-.02,.18,.01,.52,.08,.39,.09,.87,.2,1.45,.33,1.26,.3,3.08,.72,5.34,1.2,4.51,.98,10.78,2.18,17.77,3.09,6.99,.91,13.35,1.35,17.97,1.56,2.31,.1,4.18,.17,5.47,.2l1.49,.06c.34,.02,.52,.04,.52,.06Z" style="fill: rgb(38, 50, 56); transform-origin: 212.325px 315.45px;" id="elij85xdkfbte" class="animable"></path><path d="M241.05,323.07s-.39,.13-1.12,.26c-.73,.14-1.79,.3-3.1,.45-2.63,.32-6.29,.57-10.34,.5-4.05-.08-7.7-.48-10.32-.9-1.31-.21-2.36-.41-3.08-.57-.72-.16-1.12-.27-1.11-.3,0-.04,.42,0,1.15,.1,.84,.11,1.88,.25,3.1,.41,2.62,.33,6.25,.66,10.27,.74,4.02,.08,7.66-.12,10.29-.34,1.23-.11,2.27-.21,3.11-.29,.74-.07,1.15-.09,1.15-.06Z" style="fill: rgb(38, 50, 56); transform-origin: 226.515px 323.393px;" id="el5wr3zg3tueg" class="animable"></path><path d="M235.67,338.43c0,.14-3.5,.26-7.81,.26s-7.81-.12-7.81-.26,3.5-.26,7.81-.26,7.81,.12,7.81,.26Z" style="fill: rgb(38, 50, 56); transform-origin: 227.86px 338.43px;" id="elgqj8459y605" class="animable"></path><path d="M235.67,353.38c0,.14-3.5,.26-7.81,.26s-7.81-.12-7.81-.26,3.5-.26,7.81-.26,7.81,.12,7.81,.26Z" style="fill: rgb(38, 50, 56); transform-origin: 227.86px 353.38px;" id="el7ulikbjy53s" class="animable"></path><path d="M245.03,332.61c0,.14-6.41,.26-14.31,.26s-14.31-.12-14.31-.26,6.4-.26,14.31-.26,14.31,.12,14.31,.26Z" style="fill: rgb(38, 50, 56); transform-origin: 230.72px 332.61px;" id="elpd23mu623s" class="animable"></path><path d="M245.03,359.06c0,.14-6.41,.26-14.31,.26s-14.31-.12-14.31-.26,6.4-.26,14.31-.26,14.31,.12,14.31,.26Z" style="fill: rgb(38, 50, 56); transform-origin: 230.72px 359.06px;" id="el4qzcnm7se8j" class="animable"></path></g><g id="el97igjq5gz9c" class="animable" style="transform-origin: 274.307px 351.875px;"><path d="M350.28,317.18c-5.9-9.03-77.11-54.1-77.11-54.1l-17.55-.94-3.54,55.09,67.24,39.82-13.01,89.94,34.77,4.98s9.81-76.15,11.1-87.73c.79-7.11,5.12-36.31-1.9-47.04Z" style="fill: rgb(38, 50, 56); transform-origin: 303.152px 357.055px;" id="el46ikb6oe39b" class="animable"></path><g id="elq4jmstuoxoa"><path d="M335.16,323.61c-7.14-9.38-54.23-45.36-54.23-45.36l41.81,76.18-6.45,23.55-3.45,23.85s17.35-20.43,23.62-32.21c5.94-11.17,12.59-27.78-1.3-46.01Z" style="opacity: 0.3; transform-origin: 312.153px 340.04px;" class="animable" id="elhx3dvrl769"></path></g><path d="M337.62,337.35c-2.88-10.86-12.25-20.52-20.2-27.18-7.94-6.66-52.99-43.17-52.99-43.17l-9.66-15.22-57.92,5.6s-6.64,30.9,1.9,44.92c6.04,9.92,34.76,13.07,39.98,15.5,5.22,2.42,58.32,28.57,58.32,28.57l-54.48,49.46,23.75,23.41s12.38-8.73,27.83-21.75c18.14-15.29,23.38-20.46,34.81-32,7.71-7.79,10.71-20.37,8.66-28.11Z" style="fill: rgb(38, 50, 56); transform-origin: 266.319px 335.51px;" id="ely1kepomf2s" class="animable"></path><g id="elltc8ptf5f6" class="animable" style="transform-origin: 308.05px 349.05px;"><path d="M313.27,356.26c-.06,.13-3.33-1.34-7.31-3.27-3.97-1.94-7.14-3.61-7.08-3.74,.06-.13,3.33,1.34,7.31,3.27,3.97,1.94,7.14,3.61,7.08,3.74Z" style="fill: rgb(69, 90, 100); transform-origin: 306.075px 352.755px;" id="el2l521iyplz" class="animable"></path><path d="M317.22,341.85c.03,.14-3.44,1.03-7.75,1.99-4.31,.96-7.84,1.63-7.87,1.49-.03-.14,3.44-1.03,7.75-1.99,4.31-.96,7.84-1.63,7.87-1.49Z" style="fill: rgb(69, 90, 100); transform-origin: 309.41px 343.59px;" id="eluqih352ds7" class="animable"></path><path d="M316.5,353.47s-.46-.06-1.25-.26c-.8-.2-1.94-.51-3.36-.91-2.82-.82-6.72-2-10.82-3.85-.4-.19-.79-.37-1.16-.54l-.95-.45,1.05-.05c4.2-.19,7.96,.13,10.62,.55,1.33,.21,2.4,.43,3.12,.6,.73,.18,1.12,.3,1.11,.33,0,.04-.41-.02-1.15-.14-.74-.12-1.8-.28-3.13-.44-2.66-.33-6.38-.59-10.55-.39l.1-.49c.37,.17,.76,.35,1.15,.54,4.06,1.84,7.93,3.07,10.71,3.98,1.32,.43,2.43,.78,3.31,1.07,.78,.26,1.2,.42,1.19,.45Z" style="fill: rgb(69, 90, 100); transform-origin: 307.73px 350.412px;" id="eljbmk2go258a" class="animable"></path></g></g><g id="el8ytb5fxvcs3" class="animable" style="transform-origin: 177.785px 203.002px;"><path d="M180.92,142.99s-39.67,65.4-37.87,77.39c1.8,12,53.85,48.31,54.15,47.41,.3-.9,12.9-22.29,12.9-22.29l-34.07-29.32,.9-2.4s23.16-39.68,26.46-42.08c3.3-2.4,16.43-24.8,3.83-31.39s-26.31,2.68-26.31,2.68Z" style="fill: rgb(224, 224, 224); transform-origin: 177.785px 202.875px;" id="el6y2y22wxmuh" class="animable"></path><g id="elcubj1xpjotl" class="animable" style="transform-origin: 163.371px 212.551px;"><path d="M158.26,219.14c0-.07,.95-.26,2.51-.46,1.56-.19,3.73-.37,6.13-.42,2.4-.04,4.58,.06,6.15,.2,1.57,.14,2.53,.3,2.52,.37,0,.08-.98,.05-2.54,0-1.57-.04-3.73-.09-6.12-.04-2.39,.04-4.55,.16-6.11,.26-1.56,.1-2.53,.16-2.54,.09Z" style="fill: rgb(38, 50, 56); transform-origin: 166.915px 218.711px;" id="el8n2j62fhnjb" class="animable"></path><path d="M171.35,215.68s-.13,.05-.39,.09c-.26,.04-.64,.11-1.14,.17-.99,.13-2.44,.26-4.25,.31-3.61,.11-8.69-.21-14.17-1.66l-.71-.19,.67-.3c.62-.28,1.3-.52,2-.71,1.5-.41,3.01-.57,4.46-.67,1.45-.09,2.84-.13,4.17-.14,2.66-.01,5.05,.14,7.05,.33,2,.2,3.6,.45,4.71,.65,.55,.1,.98,.19,1.27,.25,.29,.07,.44,.11,.43,.13,0,.04-.62-.04-1.73-.18-1.11-.14-2.72-.33-4.71-.48-1.99-.15-4.37-.26-7.01-.22-2.63,.08-5.58,.08-8.49,.83-.68,.18-1.33,.41-1.92,.68l-.04-.49c5.42,1.44,10.45,1.82,14.03,1.81,1.8,0,3.24-.08,4.24-.15,1-.07,1.54-.11,1.55-.07Z" style="fill: rgb(38, 50, 56); transform-origin: 163.07px 214.425px;" id="elhibsseam5tt" class="animable"></path><path d="M165.06,205.94c.07-.13,2.59,1.13,5.62,2.81,3.03,1.68,5.44,3.14,5.37,3.26-.07,.13-2.59-1.13-5.62-2.81-3.03-1.68-5.44-3.14-5.37-3.26Z" style="fill: rgb(38, 50, 56); transform-origin: 170.555px 208.975px;" id="elt9195xsbsvc" class="animable"></path></g><path d="M175.61,252.74s.14,.07,.4,.24c.28,.19,.66,.44,1.15,.76,1.02,.7,2.49,1.7,4.35,2.97,3.78,2.61,9.18,6.33,15.77,10.89l-.29,.06c3.76-6.39,8.24-14.01,13.12-22.32l.05,.32c-3.99-3.4-8.23-7.02-12.6-10.75-7.76-6.64-15.12-12.94-21.68-18.55l-.14-.12,.09-.17c2.79-5.26,5.63-9.95,8.12-14.15,2.52-4.18,4.72-7.84,6.56-10.88,1.83-3.03,3.26-5.44,4.21-7.09,.46-.81,.82-1.44,1.08-1.9l.28-.49c.06-.11,.1-.16,.11-.16,0,0-.02,.06-.07,.18l-.25,.51c-.22,.45-.56,1.1-1.02,1.94-.92,1.68-2.31,4.11-4.1,7.16-1.81,3.06-3.98,6.74-6.46,10.94-2.46,4.21-5.28,8.92-8.04,14.17l-.06-.29c6.57,5.6,13.94,11.89,21.71,18.51,4.36,3.73,8.6,7.35,12.59,10.76l.16,.14-.11,.18c-4.92,8.29-9.42,15.89-13.21,22.27l-.11,.19-.18-.13c-6.55-4.61-11.92-8.39-15.67-11.03-1.84-1.31-3.28-2.34-4.29-3.06-.47-.34-.84-.61-1.11-.81-.25-.19-.37-.29-.37-.29Z" style="fill: rgb(38, 50, 56); transform-origin: 193.125px 224.73px;" id="elhw4li6px5ap" class="animable"></path><path d="M202.13,163.05c-.11-.04,.68-1.63,.97-4.4,.31-2.73-.07-6.74-2.29-10.36-2.23-3.61-5.64-5.77-8.22-6.72-2.61-.99-4.38-1-4.36-1.11,0-.03,.44-.04,1.23,.03,.79,.07,1.92,.28,3.26,.74,2.66,.88,6.22,3.05,8.54,6.79,2.3,3.75,2.63,7.9,2.21,10.68-.2,1.41-.52,2.51-.81,3.25-.29,.74-.5,1.12-.52,1.11Z" style="fill: rgb(38, 50, 56); transform-origin: 195.928px 151.749px;" id="elo5rlyt4hbgq" class="animable"></path></g><g id="elrhkahp7psep" class="animable" style="transform-origin: 253.926px 209.851px;"><g id="el0fr3pku492o9" class="animable" style="transform-origin: 257.937px 209.851px;"><g id="el6xclgxeu8iq" class="animable" style="transform-origin: 257.937px 218.986px;"><path d="M299.8,175.1l-7.76-5.55,1.99-2.42c.3-.37,.25-.91-.12-1.21-.37-.3-.91-.25-1.21,.12l-62.18,75.8c-.3,.37-.25,.91,.12,1.21,.37,.3,.91,.25,1.21-.12l2.67-3.26s.06,.09,.11,.12l8.21,5.87c.39,.28,.94,.18,1.21-.22h0c.26-.39,.16-.91-.21-1.18l-8.21-5.87s-.03-.01-.05-.02l8.27-10.08,8.08,5.78c.39,.28,.94,.18,1.21-.22h0c.26-.39,.16-.91-.21-1.18l-7.99-5.72,8.06-9.82,8.11,5.8c.39,.28,.94,.18,1.21-.22,.26-.39,.16-.91-.21-1.18l-8.02-5.73,5.79-7.06,7.92,5.67c.39,.28,.94,.18,1.21-.22h0c.26-.39,.16-.91-.21-1.18l-7.83-5.6,8.5-10.37c.06,.13,.14,.26,.27,.35l8.21,5.87c.39,.28,.94,.18,1.21-.22h0c.26-.39,.16-.91-.21-1.18l-8.21-5.87c-.09-.07-.2-.11-.3-.14l4.47-5.45,7.96,5.7c.39,.28,.94,.18,1.21-.22,.26-.39,.16-.91-.21-1.18l-7.87-5.63,7.31-8.91s.06,.09,.11,.12l8.21,5.87c.39,.28,.94,.18,1.21-.22,.26-.39,.16-.91-.21-1.18l-8.21-5.87s-.03-.01-.05-.02l6.56-8,7.85,5.61c.39,.28,.94,.18,1.21-.22h0c.26-.39,.16-.91-.21-1.18Z" style="fill: #F2CF63; transform-origin: 265.23px 205.772px;" id="elk10094jcqkk" class="animable"></path><path d="M279.05,264.87c-22.13,8.36-37.98,41.87-57.68,37.38-4.21-.96-7.84-3.7-10.02-7.43-2.94-5.04-5.29-13.89,3.15-25.14,13.5-17.98,85-104.85,85-104.85,0,0,2.68-2.3,1.35-5.78-.96-2.5-16.91-20.63-16.91-20.63l2.67-3.11s18.06,19.16,19.92,23.74c2.37,5.84-2.11,12.03-2.11,12.03-4.13,6.01-51.62,70.39-54.6,75.25-2.44,3.98-15.78,23.18-20.5,29.95-.95,1.36-.49,3.26,1.02,4.02,1.24,.63,2.77,.16,3.55-.99,4.3-6.34,16.88-21.15,26.23-29.29l9.83-9.12,1.76-6.74,12.17,34.38-4.82-3.67Z" style="fill: #F2CF63; transform-origin: 257.937px 218.986px;" id="elwvwh7lwcmor" class="animable"></path><path d="M295.06,171.71c.11,.09-12.78,15.99-28.78,35.5-16.01,19.52-29.07,35.27-29.19,35.17-.11-.09,12.77-15.98,28.78-35.5,16-19.51,29.07-35.26,29.18-35.17Z" style="fill: rgb(38, 50, 56); transform-origin: 266.075px 207.045px;" id="elv5tm58hxsfb" class="animable"></path><g id="el601277ylgee" class="animable" style="transform-origin: 301.863px 176.747px;"><path d="M303.9,178.37c-1.37,1.81-3.28,2.7-4.78,1.46-1.5-1.24,.84-4.45,.84-4.45,0,0,2.47-3.11,4.07-2,1.6,1.11,1.24,3.19-.13,4.99Z" style="fill: #F2CF63; transform-origin: 301.852px 176.773px;" id="eldsm1884gy85" class="animable"></path><path d="M303.9,178.37s.13-.27,.38-.74c.23-.46,.58-1.17,.62-2.08,.01-.45-.08-.94-.36-1.36-.3-.39-.74-.84-1.26-.81-.54,0-1.11,.32-1.63,.72-.52,.4-1.02,.9-1.46,1.43-.39,.56-.75,1.19-.99,1.79-.24,.6-.4,1.25-.25,1.76,.11,.52,.66,.82,1.12,1,.48,.16,.98,.12,1.41-.01,.86-.28,1.45-.81,1.84-1.15,.38-.36,.58-.59,.61-.56,.02,.02-.12,.28-.46,.7-.36,.4-.92,1-1.87,1.36-.89,.36-2.5,.25-3.1-1.2-.21-.71,0-1.43,.24-2.09,.26-.67,.61-1.29,1.05-1.92,.49-.59,1-1.09,1.57-1.52,.57-.41,1.2-.8,1.95-.79,1.56,.19,2.09,1.71,1.99,2.67-.1,1.01-.53,1.71-.81,2.16-.31,.45-.53,.65-.55,.63Z" style="fill: rgb(38, 50, 56); transform-origin: 301.863px 176.747px;" id="elcr6jta5dvee" class="animable"></path></g><g id="elktay7pgeo2" class="animable" style="transform-origin: 294.813px 185.697px;"><path d="M296.85,187.32c-1.37,1.81-3.28,2.7-4.78,1.46-1.5-1.24,.84-4.45,.84-4.45,0,0,2.47-3.11,4.07-2,1.6,1.11,1.24,3.19-.13,4.99Z" style="fill: #F2CF63; transform-origin: 294.802px 185.723px;" id="elp1jmiexe11e" class="animable"></path><path d="M296.85,187.32s.13-.27,.38-.74c.23-.46,.58-1.17,.62-2.08,.01-.45-.08-.94-.36-1.36-.3-.39-.74-.84-1.26-.81-.54,0-1.11,.32-1.63,.72-.52,.4-1.02,.9-1.46,1.43-.39,.56-.75,1.19-.99,1.79-.24,.6-.4,1.25-.25,1.76,.11,.52,.66,.82,1.12,1,.48,.16,.98,.12,1.41-.01,.86-.28,1.45-.81,1.84-1.15,.38-.36,.58-.59,.61-.56,.02,.02-.12,.28-.46,.7-.36,.4-.92,1-1.87,1.36-.89,.36-2.5,.25-3.1-1.2-.21-.71,0-1.43,.24-2.09,.26-.67,.61-1.29,1.05-1.92,.49-.59,1-1.09,1.57-1.52,.57-.41,1.2-.8,1.95-.79,1.56,.19,2.09,1.71,1.99,2.67-.1,1.01-.53,1.71-.81,2.16-.31,.45-.53,.65-.55,.63Z" style="fill: rgb(38, 50, 56); transform-origin: 294.813px 185.697px;" id="el34hburu1cvl" class="animable"></path></g><g id="elg4yos1c6mag" class="animable" style="transform-origin: 287.073px 196.817px;"><path d="M289.11,198.44c-1.37,1.81-3.28,2.7-4.78,1.46-1.5-1.24,.84-4.45,.84-4.45,0,0,2.47-3.11,4.07-2,1.6,1.11,1.24,3.19-.13,4.99Z" style="fill: #F2CF63; transform-origin: 287.062px 196.843px;" id="elksid40n1pbb" class="animable"></path><path d="M289.11,198.44s.13-.27,.38-.74c.23-.46,.58-1.17,.62-2.08,.01-.45-.08-.94-.36-1.36-.3-.39-.74-.84-1.26-.81-.54,0-1.11,.32-1.63,.72-.52,.4-1.02,.9-1.46,1.43-.39,.56-.75,1.19-.99,1.79-.24,.6-.4,1.25-.25,1.76,.11,.52,.66,.82,1.12,1,.48,.16,.98,.12,1.41-.01,.86-.28,1.45-.81,1.84-1.15,.38-.36,.58-.59,.61-.56,.02,.02-.12,.28-.46,.7-.36,.4-.92,1-1.87,1.36-.89,.36-2.5,.25-3.1-1.2-.21-.71,0-1.43,.24-2.09,.26-.67,.61-1.29,1.05-1.92,.49-.59,1-1.09,1.57-1.52,.57-.41,1.2-.8,1.95-.79,1.56,.19,2.09,1.71,1.99,2.67-.1,1.01-.53,1.71-.81,2.16-.31,.45-.53,.65-.55,.63Z" style="fill: rgb(38, 50, 56); transform-origin: 287.073px 196.817px;" id="el3q1m4t3pmdx" class="animable"></path></g><g id="elc1hl0ig0zoi" class="animable" style="transform-origin: 273.203px 215.767px;"><path d="M275.24,217.39c-1.37,1.81-3.28,2.7-4.78,1.46-1.5-1.24,.84-4.45,.84-4.45,0,0,2.47-3.11,4.07-2,1.6,1.11,1.24,3.19-.13,4.99Z" style="fill: #F2CF63; transform-origin: 273.192px 215.793px;" id="elvp91c2u8x2j" class="animable"></path><path d="M275.24,217.39s.13-.27,.38-.74c.23-.46,.58-1.17,.62-2.08,.01-.45-.08-.94-.36-1.36-.3-.39-.74-.84-1.26-.81-.54,0-1.11,.32-1.63,.72-.52,.4-1.02,.9-1.46,1.43-.39,.56-.75,1.19-.99,1.79-.24,.6-.4,1.25-.25,1.76,.11,.52,.66,.82,1.12,1,.48,.16,.98,.12,1.41-.01,.86-.28,1.45-.81,1.84-1.15,.38-.36,.58-.59,.61-.56,.02,.02-.12,.28-.46,.7-.36,.4-.92,1-1.87,1.36-.89,.36-2.5,.25-3.1-1.2-.21-.71,0-1.43,.24-2.09,.26-.67,.61-1.29,1.05-1.92,.49-.59,1-1.09,1.57-1.52,.57-.41,1.2-.8,1.95-.79,1.56,.19,2.09,1.71,1.99,2.67-.1,1.01-.53,1.71-.81,2.16-.31,.45-.53,.65-.55,.63Z" style="fill: rgb(38, 50, 56); transform-origin: 273.203px 215.767px;" id="eltjb4jrygad9" class="animable"></path></g><g id="elesrbf3dmxm6" class="animable" style="transform-origin: 266.323px 224.347px;"><path d="M268.37,225.97c-1.37,1.81-3.28,2.7-4.78,1.46-1.5-1.24,.84-4.45,.84-4.45,0,0,2.47-3.11,4.07-2,1.6,1.11,1.24,3.19-.13,4.99Z" style="fill: #F2CF63; transform-origin: 266.322px 224.373px;" id="elzu6bjgzyzfj" class="animable"></path><path d="M268.37,225.97s.13-.27,.38-.74c.23-.46,.58-1.17,.62-2.08,.01-.45-.08-.94-.36-1.36-.3-.39-.74-.84-1.26-.81-.54,0-1.11,.32-1.63,.72-.52,.4-1.02,.9-1.46,1.43-.39,.56-.75,1.19-.99,1.79-.24,.6-.4,1.25-.26,1.76,.11,.52,.66,.82,1.12,1,.48,.16,.98,.12,1.41-.01,.86-.28,1.45-.81,1.84-1.15,.38-.36,.58-.59,.61-.56,.02,.02-.12,.28-.46,.7-.36,.4-.92,1-1.87,1.36-.89,.36-2.5,.25-3.1-1.2-.21-.71,0-1.43,.24-2.09,.26-.67,.61-1.29,1.05-1.92,.49-.59,1-1.09,1.57-1.52,.57-.41,1.2-.8,1.95-.79,1.56,.19,2.09,1.71,1.99,2.67-.1,1.01-.53,1.71-.81,2.16-.31,.45-.53,.65-.55,.63Z" style="fill: rgb(38, 50, 56); transform-origin: 266.323px 224.347px;" id="el95b6bw3i00d" class="animable"></path></g><g id="elb0sg6s7rbw" class="animable" style="transform-origin: 259.443px 234.667px;"><path d="M261.49,236.29c-1.37,1.81-3.28,2.7-4.78,1.46-1.5-1.24,.84-4.45,.84-4.45,0,0,2.47-3.11,4.07-2,1.6,1.11,1.24,3.19-.13,4.99Z" style="fill: #F2CF63; transform-origin: 259.442px 234.693px;" id="elpjmidzar8if" class="animable"></path><path d="M261.49,236.29s.13-.27,.38-.74c.23-.46,.58-1.17,.62-2.08,.01-.45-.08-.94-.36-1.36-.3-.39-.74-.84-1.26-.81-.54,0-1.11,.32-1.63,.72-.52,.4-1.02,.9-1.46,1.43-.39,.56-.75,1.19-.99,1.79-.24,.6-.4,1.25-.26,1.76,.11,.52,.66,.82,1.12,1,.48,.16,.98,.12,1.41-.01,.86-.28,1.45-.81,1.84-1.15,.38-.36,.58-.59,.61-.56,.02,.02-.12,.28-.46,.7-.36,.4-.92,1-1.87,1.36-.89,.36-2.5,.25-3.1-1.2-.21-.71,0-1.43,.24-2.09,.26-.67,.61-1.29,1.05-1.92,.49-.59,1-1.09,1.57-1.52,.57-.41,1.2-.8,1.95-.79,1.56,.19,2.09,1.71,1.99,2.67-.1,1.01-.53,1.71-.81,2.16-.31,.45-.53,.65-.55,.63Z" style="fill: rgb(38, 50, 56); transform-origin: 259.443px 234.667px;" id="eltcc1wpfnob" class="animable"></path></g><g id="el8ruk5wweeov" class="animable" style="transform-origin: 251.273px 245.297px;"><path d="M253.32,246.92c-1.37,1.81-3.28,2.7-4.78,1.46-1.5-1.24,.84-4.45,.84-4.45,0,0,2.47-3.11,4.07-2,1.6,1.11,1.24,3.19-.13,4.99Z" style="fill: #F2CF63; transform-origin: 251.272px 245.323px;" id="elatn7oapt8jq" class="animable"></path><path d="M253.32,246.92s.13-.27,.38-.74c.23-.46,.58-1.17,.62-2.08,.01-.45-.08-.94-.36-1.36-.3-.39-.74-.84-1.26-.81-.54,0-1.11,.32-1.63,.72-.52,.4-1.02,.9-1.46,1.43-.39,.56-.75,1.19-.99,1.79-.24,.6-.4,1.25-.26,1.76,.11,.52,.66,.82,1.12,1,.48,.16,.98,.12,1.41-.01,.86-.28,1.45-.81,1.84-1.15,.38-.36,.58-.59,.61-.56,.02,.02-.12,.28-.46,.7-.36,.4-.92,1-1.87,1.36-.89,.36-2.5,.25-3.1-1.2-.21-.71,0-1.43,.24-2.09,.26-.67,.61-1.29,1.05-1.92,.49-.59,1-1.09,1.57-1.52,.57-.41,1.2-.8,1.95-.79,1.56,.19,2.09,1.71,1.99,2.67-.1,1.01-.53,1.71-.81,2.16-.31,.45-.53,.65-.55,.63Z" style="fill: rgb(38, 50, 56); transform-origin: 251.273px 245.297px;" id="elj80gqaj2ko" class="animable"></path></g><g id="elmk2mwprjhd" class="animable" style="transform-origin: 243.113px 255.927px;"><path d="M245.16,257.55c-1.37,1.81-3.28,2.7-4.78,1.46s.84-4.45,.84-4.45c0,0,2.47-3.11,4.07-2,1.6,1.11,1.24,3.19-.13,4.99Z" style="fill: #F2CF63; transform-origin: 243.112px 255.953px;" id="el9dmhljyf4cd" class="animable"></path><path d="M245.16,257.55s.13-.27,.38-.74c.23-.46,.58-1.17,.62-2.08,.01-.45-.08-.94-.36-1.36-.3-.39-.74-.84-1.26-.81-.54,0-1.11,.32-1.63,.72-.52,.4-1.02,.9-1.46,1.43-.39,.56-.75,1.19-.99,1.79-.24,.6-.4,1.25-.26,1.76,.11,.52,.66,.82,1.12,1,.48,.16,.98,.12,1.41-.01,.86-.28,1.45-.81,1.84-1.15,.38-.36,.58-.59,.61-.56,.02,.02-.12,.28-.46,.7-.36,.4-.92,1-1.87,1.36-.89,.36-2.5,.25-3.1-1.2-.21-.71,0-1.43,.24-2.09,.26-.67,.61-1.29,1.05-1.92,.49-.59,1-1.09,1.57-1.52,.57-.41,1.2-.8,1.95-.79,1.56,.19,2.09,1.71,1.99,2.67-.1,1.01-.53,1.71-.81,2.16-.31,.45-.53,.65-.55,.63Z" style="fill: rgb(38, 50, 56); transform-origin: 243.113px 255.927px;" id="el24x80xy9cp3" class="animable"></path></g></g><path d="M263.26,119.15c.09,.28,7.99,9.97,8.32,10.07,.34,.1,5.56,5.42,5.56,5.42l4.33,2.44,2.6,2.46,4.1-3.42-2.08-2.8-2.28-4.83-6.44-6.28-12.25-5.17-1.87,2.1Z" style="fill: rgb(38, 50, 56); transform-origin: 275.71px 128.29px;" id="elkw86x6wgnbh" class="animable"></path><g id="elrvlr9q3gxm"><g style="opacity: 0.3; transform-origin: 234.249px 285.049px;" class="animable" id="elq1twviwb3op"><path d="M239.69,284.01c.57,3-1.4,5.9-4.4,6.48-3,.57-5.9-1.4-6.48-4.4s1.4-5.9,4.4-6.48,5.9,1.4,6.48,4.4Z" id="elz0seny8t3l" class="animable" style="transform-origin: 234.249px 285.049px;"></path></g></g><g id="elborkj2pw5uh" class="animable" style="transform-origin: 237.277px 283.196px;"><path d="M243.37,282.05c.63,3.31-1.54,6.51-4.86,7.15-3.31,.63-6.51-1.54-7.15-4.86s1.54-6.51,4.86-7.15c3.31-.63,6.51,1.54,7.15,4.86Z" style="fill: #F2CF63; transform-origin: 237.364px 283.195px;" id="elr8p2sntj9fg" class="animable"></path><path d="M243.37,282.05c-.05,.01-.14-.53-.56-1.39-.42-.84-1.27-2.03-2.8-2.77-1.49-.75-3.72-.9-5.64,.26-.94,.56-1.78,1.44-2.28,2.52-.53,1.08-.69,2.36-.47,3.61,.25,1.24,.88,2.38,1.76,3.19,.87,.83,1.97,1.33,3.05,1.51,2.21,.38,4.23-.59,5.34-1.84,1.15-1.25,1.51-2.67,1.59-3.6,.08-.95-.05-1.49,0-1.5,.02,0,.05,.13,.11,.38,.06,.25,.1,.63,.09,1.13-.02,.97-.33,2.47-1.52,3.84-1.14,1.36-3.29,2.44-5.69,2.06-1.18-.18-2.37-.72-3.32-1.61-.97-.87-1.66-2.11-1.93-3.46-.25-1.36-.06-2.76,.52-3.93,.55-1.18,1.47-2.12,2.5-2.72,2.09-1.23,4.49-1.02,6.05-.17,1.6,.83,2.45,2.11,2.82,3.01,.19,.45,.29,.83,.33,1.08,.04,.25,.06,.39,.04,.39Z" style="fill: rgb(38, 50, 56); transform-origin: 237.277px 283.196px;" id="el9rv8i3z74cs" class="animable"></path></g><g id="el9fpobnz0su"><g style="opacity: 0.3; transform-origin: 259.77px 258.48px;" class="animable" id="elzgly3o2asuf"><path d="M265.21,257.44c.57,3-1.4,5.9-4.4,6.48-3,.57-5.9-1.4-6.48-4.4-.57-3,1.4-5.9,4.4-6.48,3-.57,5.9,1.4,6.48,4.4Z" id="eldfdw1rjan8g" class="animable" style="transform-origin: 259.77px 258.48px;"></path></g></g><g id="elqrsgxdea1w"><g style="opacity: 0.3; transform-origin: 248.409px 272.24px;" class="animable" id="el5f5v5ilo01d"><path d="M253.85,271.2c.57,3-1.4,5.9-4.4,6.48-3,.57-5.9-1.4-6.48-4.4s1.4-5.9,4.4-6.48c3-.57,5.9,1.4,6.48,4.4Z" id="el5ssyrshxepg" class="animable" style="transform-origin: 248.409px 272.24px;"></path></g></g><g id="elqom4l9y7cin" class="animable" style="transform-origin: 261.477px 255.836px;"><path d="M267.57,254.69c.63,3.31-1.54,6.51-4.86,7.15-3.31,.63-6.51-1.54-7.15-4.86-.63-3.31,1.54-6.51,4.86-7.15s6.51,1.54,7.15,4.86Z" style="fill: #F2CF63; transform-origin: 261.565px 255.834px;" id="ela0fymw083hu" class="animable"></path><path d="M267.57,254.69c-.05,.01-.14-.53-.56-1.39-.42-.84-1.27-2.03-2.8-2.77-1.49-.75-3.72-.9-5.64,.26-.94,.56-1.78,1.44-2.28,2.52-.53,1.08-.69,2.36-.47,3.61,.25,1.24,.88,2.38,1.76,3.19,.87,.82,1.97,1.33,3.05,1.51,2.21,.38,4.23-.59,5.34-1.84,1.15-1.25,1.51-2.67,1.59-3.6,.08-.95-.05-1.49,0-1.5,.02,0,.05,.13,.11,.38,.06,.25,.1,.63,.09,1.13-.02,.97-.33,2.47-1.52,3.84-1.14,1.36-3.29,2.44-5.69,2.06-1.18-.18-2.37-.72-3.32-1.61-.97-.87-1.66-2.11-1.93-3.46-.25-1.36-.06-2.76,.52-3.93,.55-1.18,1.47-2.12,2.5-2.72,2.09-1.23,4.49-1.02,6.05-.17,1.6,.83,2.45,2.11,2.82,3.01,.19,.45,.29,.83,.33,1.08,.04,.25,.06,.39,.04,.39Z" style="fill: rgb(38, 50, 56); transform-origin: 261.477px 255.836px;" id="elnaqovx4c7t" class="animable"></path></g><g id="elep61eo0jpi7" class="animable" style="transform-origin: 249.607px 269.666px;"><path d="M255.7,268.52c.63,3.31-1.54,6.51-4.86,7.15-3.31,.63-6.51-1.54-7.15-4.86-.63-3.31,1.54-6.51,4.86-7.15,3.31-.63,6.51,1.54,7.15,4.86Z" style="fill: #F2CF63; transform-origin: 249.695px 269.665px;" id="el4v3qcab2d9" class="animable"></path><path d="M255.7,268.52c-.05,.01-.14-.53-.56-1.39-.42-.84-1.27-2.03-2.8-2.77-1.49-.75-3.72-.9-5.64,.26-.94,.56-1.78,1.44-2.28,2.52-.53,1.08-.69,2.36-.47,3.61,.25,1.24,.88,2.38,1.76,3.19,.87,.82,1.97,1.33,3.05,1.51,2.21,.38,4.23-.59,5.34-1.84,1.15-1.25,1.51-2.67,1.59-3.6,.08-.95-.05-1.49,0-1.5,.02,0,.05,.13,.11,.38,.06,.25,.1,.63,.09,1.13-.02,.97-.33,2.47-1.52,3.84-1.14,1.36-3.29,2.44-5.69,2.06-1.18-.18-2.37-.72-3.32-1.61-.97-.87-1.66-2.11-1.93-3.46-.25-1.36-.06-2.76,.52-3.93,.55-1.18,1.47-2.12,2.5-2.72,2.09-1.23,4.49-1.02,6.05-.17,1.6,.83,2.45,2.11,2.82,3.01,.19,.45,.29,.83,.33,1.08,.04,.25,.06,.39,.04,.39Z" style="fill: rgb(38, 50, 56); transform-origin: 249.607px 269.666px;" id="elvvdjomvhnw8" class="animable"></path></g></g><g id="elsrbjkfi8bl"><path d="M217.79,266.7s-.4,.89,5.43-.7c5.83-1.6,9.51-4.48,9.51-4.48,0,0,6.23,2.36,6.29,2.27,.06-.09,1.57-2.52,1.57-2.52l-8.41-2.79-12.46,6.04-1.93,2.17Z" style="opacity: 0.3; transform-origin: 229.187px 262.714px;" class="animable" id="eloa83yzw3vyp"></path></g><path d="M209.64,246.22s3.41,1.79,6.33,.86c2.92-.94,16.55-7.65,16.55-7.65l13.42-1.35,6.36,5.21,2.12,6.63s-1.34,2-2.98-.26c-1.64-2.27-3.06-4.52-3.06-4.52l4.3,9.89s-2.72,1.64-5.52-1.75c-1.83-2.22-3.68-5.6-3.68-5.6l-6.78,.96,6.64,2.7s10.27,9.42,8.13,10.65c0,0-4.3,3.12-6.75,2.01-1.45-.66-12.55-4.86-12.55-4.86,0,0-10.45,5.91-15.47,6.28-4.01,.3-16.07-3.5-16.07-3.5l8.99-15.72Z" style="fill: rgb(174, 116, 97); transform-origin: 227.525px 251.758px;" id="eltbm4tk5f9k" class="animable"></path><g id="elnl0ddadpwg" class="animable" style="transform-origin: 283.182px 213.267px;"><path d="M279.99,197.56c-.27,.12-1.82,1.59-1.12,2.93s1.38,1.56,2.31,1.47c.93-.09,2.7-.27,2.7-.27,0,0,.88,1.32-1.01,2.17-1.89,.84-1.87,.87-1.87,.87l-4.89,6.43s-1.38-.16-2.19,1.1c-1.22,1.89-.36,3.04,.73,3.6,1.09,.55,1.77,.84,1.77,.84,0,0-2.13,.57-2.47,4.2-.23,2.43,.44,6.65,2.9,7.72,2.46,1.07,4.03,1.77,6.68,0s4.42-7.68,4.42-7.68c0,0,2.42-2.12,1.96-3.95l-.87-1.7s2.82,.22,3.49-1.63c.66-1.85,.68-3.21,.06-3.81-.62-.6-1.42-1.07-1.42-1.07,0,0,.81-2.24,.42-3.33s-1.04-2.91-.7-3.32c.34-.41,.62-4.2-.59-5.02s-10.3,.45-10.3,.45Z" style="fill: rgb(174, 116, 97); transform-origin: 283.182px 213.267px;" id="elply9e6h97wo" class="animable"></path><path d="M282.33,201.97c-.01-.14,1.19-.39,2.69-.54,1.5-.16,2.72-.17,2.74-.02,.01,.14-1.19,.39-2.69,.54-1.5,.16-2.72,.17-2.74,.02Z" style="fill: rgb(111, 68, 57); transform-origin: 285.045px 201.69px;" id="el23b0au5uxv8" class="animable"></path><g id="els3qzloynlvs" class="animable" style="transform-origin: 282.08px 209.733px;"><path d="M289.03,208.77c-1.91-.59-5.71-2.25-7.62-2.84-.93-.29-1.84-.55-2.75-.59-.94-.04-1.95,.2-2.62,.83-.68,.63-.93,1.69-.41,2.43,.27,.38,.69,.63,1.1,.86,3.48,1.98,7.18,3.63,11.03,4.91" style="fill: rgb(174, 116, 97); transform-origin: 282.191px 209.853px;" id="el2zu3zzqhc8v" class="animable"></path><path d="M287.76,214.37s-.42-.06-1.15-.29c-.73-.22-1.77-.58-3.03-1.07-1.27-.5-2.75-1.14-4.36-1.94-.81-.4-1.64-.84-2.49-1.32-.42-.24-.9-.48-1.26-.95-.37-.47-.44-1.13-.28-1.68,.15-.56,.52-1.05,.97-1.36,.45-.32,.97-.5,1.47-.59,1.03-.19,2.02,.02,2.89,.25,1.75,.49,3.24,1.14,4.49,1.65,1.17,.49,2.16,.9,2.96,1.23,.7,.29,1.09,.44,1.08,.48,0,.03-.42-.05-1.15-.29-.73-.23-1.76-.6-3.03-1.08-1.27-.46-2.76-1.08-4.48-1.53-.85-.22-1.76-.39-2.67-.22-.89,.15-1.8,.69-2.03,1.59-.12,.44-.06,.9,.2,1.23,.26,.34,.68,.58,1.1,.82,.84,.48,1.67,.93,2.46,1.34,1.59,.82,3.05,1.49,4.29,2.03,1.24,.54,2.26,.94,2.96,1.22,.7,.28,1.09,.44,1.08,.48Z" style="fill: rgb(111, 68, 57); transform-origin: 282.08px 209.733px;" id="elbb72wvmdtwl" class="animable"></path></g><path d="M286.51,207.07c-.03,.13-1.07-.07-2.02-.91-.46-.41-.84-.86-.96-1.31-.13-.47,.12-.74,.17-.68,.07,.04,0,.26,.17,.55,.15,.29,.53,.66,.96,1.05,.86,.76,1.73,1.16,1.68,1.31Z" style="fill: rgb(111, 68, 57); transform-origin: 285.003px 205.634px;" id="eleh3txzhj1jn" class="animable"></path><path d="M284.15,221.74c-.12,.13-1.83-1.63-4.31-3.25-2.49-1.61-4.86-2.27-4.8-2.44,.01-.11,2.5,.33,5.08,2,1.28,.83,2.31,1.75,3,2.45,.69,.71,1.07,1.19,1.03,1.24Z" style="fill: rgb(111, 68, 57); transform-origin: 279.596px 218.89px;" id="eluhyzx8moe4" class="animable"></path><path d="M288.24,217.91c-.12,.12-2.13-1.97-5.18-3.74-3.04-1.8-5.88-2.41-5.84-2.57,.01-.06,.74,0,1.88,.32,1.13,.31,2.67,.89,4.22,1.8,1.55,.91,2.82,1.94,3.67,2.76,.85,.81,1.29,1.39,1.25,1.43Z" style="fill: rgb(111, 68, 57); transform-origin: 282.731px 214.747px;" id="el2zhg1ozjglp" class="animable"></path><path d="M278.9,225.49c-.07,.02-.25-.49-.51-1.32-.26-.83-.6-1.98-1.12-3.17-.25-.59-.59-1.19-.61-1.85-.05-.67,.38-1.25,.8-1.46,.42-.25,.84-.26,1.09-.2,.26,.06,.37,.16,.36,.19-.01,.08-.59-.15-1.25,.32-.32,.23-.58,.62-.52,1.13,.04,.5,.34,1.05,.61,1.67,.54,1.24,.82,2.43,1,3.29,.17,.86,.22,1.4,.16,1.41Z" style="fill: rgb(111, 68, 57); transform-origin: 277.795px 221.48px;" id="elui26vstj12j" class="animable"></path></g><path d="M229.31,253.31s.29-.12,.84-.25c.55-.12,1.35-.28,2.36-.4,1-.11,2.23-.19,3.57,.04,1.35,.21,2.77,.84,4.01,1.79,1.25,.94,2.28,1.98,3.26,2.87,.93,.89,1.79,1.7,2.56,2.43,1.44,1.39,2.31,2.28,2.26,2.34s-1.01-.74-2.51-2.07c-.79-.7-1.67-1.49-2.63-2.35-.99-.88-2.04-1.91-3.24-2.81-1.2-.91-2.51-1.51-3.78-1.73-1.27-.24-2.46-.2-3.45-.14-1.99,.16-3.22,.37-3.23,.28Z" style="fill: rgb(111, 68, 57); transform-origin: 238.741px 257.343px;" id="elh5y67ty1ozf" class="animable"></path><path d="M236.9,249.12c-.09,.12-.73-.21-1.53-.52-.8-.32-1.5-.51-1.48-.66,.01-.14,.79-.17,1.67,.18,.88,.34,1.43,.9,1.34,1.01Z" style="fill: rgb(111, 68, 57); transform-origin: 235.4px 248.494px;" id="elmjuyx604oop" class="animable"></path><path d="M234.64,241.45c0-.08,.89-.01,2.3-.15,1.41-.1,3.35-.51,5.58-.42,1.11,.06,2.18,.28,3.06,.71,.89,.42,1.57,1.02,2.02,1.6,.92,1.2,.84,2.22,.79,2.2-.09,.03-.15-.91-1.08-1.96-.45-.51-1.11-1.03-1.94-1.4-.83-.37-1.83-.57-2.89-.62-2.13-.09-4.09,.26-5.54,.27-1.44,.04-2.33-.15-2.32-.22Z" style="fill: rgb(111, 68, 57); transform-origin: 241.518px 243.129px;" id="el0u7wci5aa6io" class="animable"></path></g><g id="elzfh7oci8219" class="animable" style="transform-origin: 263.687px 117.053px;"><path d="M264.48,111.59c1,1.92,1.28,4.12,.77,6.1-.51,1.97-1.81,3.71-3.59,4.81" style="fill: rgb(174, 116, 97); transform-origin: 263.58px 117.045px;" id="elwn4fj0chw9" class="animable"></path><path d="M261.65,122.5c-.05-.07,.54-.45,1.3-1.25,.76-.79,1.65-2.07,2.05-3.68,.4-1.62,.23-3.17-.03-4.23-.26-1.07-.57-1.7-.5-1.74,.05-.03,.48,.55,.85,1.64,.37,1.08,.62,2.72,.18,4.46-.43,1.74-1.44,3.07-2.3,3.82-.86,.77-1.53,1.04-1.56,.99Z" style="fill: rgb(38, 50, 56); transform-origin: 263.687px 117.057px;" id="ely7zelmn747f" class="animable"></path></g><g id="el4709c4ap2rt" class="animable" style="transform-origin: 335.16px 451.96px;"><path d="M339.55,430.19l-3.99,27.87s26.56,13.39,26.31,18.61l-53.49-5.75,4.46-43.67,26.71,2.95Z" style="fill: rgb(38, 50, 56); transform-origin: 335.126px 451.96px;" id="elpi230tumym" class="animable"></path><path d="M319.27,453.92c-1.07,.18-1.91,1.28-1.78,2.37,.13,1.09,1.22,1.96,2.29,1.81,1.07-.16,2.12-1.45,1.87-2.52-.25-1.07-1.59-2.02-2.59-1.61" style="fill: rgb(224, 224, 224); transform-origin: 319.582px 455.995px;" id="ely2rg9izau9" class="animable"></path><path d="M308.39,470.92l.62-4.38,51.05,7.15s2.27,1.31,1.82,2.98l-53.49-5.75Z" style="fill: rgb(69, 90, 100); transform-origin: 335.165px 471.605px;" id="el52j8w5vmhba" class="animable"></path><path d="M336.46,457.87c-.04,.26-1.36,.24-2.73,.96-1.39,.68-2.18,1.76-2.41,1.62-.24-.08,.32-1.62,2.01-2.46,1.67-.85,3.22-.36,3.14-.13Z" style="fill: rgb(255, 255, 255); transform-origin: 333.87px 458.986px;" id="el5el47xmyjxv" class="animable"></path><path d="M341.82,460.83c.03,.26-1.15,.59-2.15,1.62-1.04,1-1.39,2.19-1.65,2.15-.25,.02-.26-1.56,1.01-2.81,1.26-1.26,2.81-1.21,2.79-.96Z" style="fill: rgb(255, 255, 255); transform-origin: 339.854px 462.644px;" id="elbn64z5hq27n" class="animable"></path><path d="M344.27,467.99c-.24,.03-.46-1.33,.36-2.71,.82-1.39,2.11-1.83,2.2-1.59,.12,.23-.75,.93-1.41,2.07-.69,1.13-.88,2.24-1.14,2.24Z" style="fill: rgb(255, 255, 255); transform-origin: 345.446px 465.814px;" id="eldhs240e4wz" class="animable"></path><path d="M336.67,451.42c-.14,.23-1.29-.26-2.78-.32-1.49-.09-2.69,.29-2.8,.05-.13-.21,1.1-1.07,2.85-.98,1.75,.08,2.89,1.05,2.74,1.25Z" style="fill: rgb(255, 255, 255); transform-origin: 333.887px 450.822px;" id="elru2v4i1bp19" class="animable"></path></g><g id="elua4j4mbyepi" class="animable" style="transform-origin: 259.165px 417.22px;"><path d="M284.27,402.2l-21.26,18.45s11.3,27.51,7.7,31.3l-36.66-39.37,31.97-30.09,18.26,19.71Z" style="fill: rgb(38, 50, 56); transform-origin: 259.165px 417.22px;" id="elglonbxd7gop" class="animable"></path><path d="M253.4,406.87c-.92-.57-2.28-.28-2.9,.62-.62,.9-.36,2.29,.55,2.87,.91,.58,2.55,.29,3.06-.68,.51-.97,.12-2.57-.9-2.91" style="fill: rgb(224, 224, 224); transform-origin: 252.247px 408.617px;" id="eldbkd70em2f" class="animable"></path><path d="M234.05,412.58l3.34-2.91,33.9,38.84s.86,2.47-.58,3.44l-36.66-39.37Z" style="fill: rgb(69, 90, 100); transform-origin: 252.797px 430.81px;" id="el4m460te53io" class="animable"></path><path d="M263.81,421.11c-.2,.18-1.18-.7-2.69-1.06-1.5-.4-2.8-.1-2.88-.35-.13-.21,1.31-1.01,3.12-.54,1.82,.45,2.67,1.83,2.45,1.96Z" style="fill: rgb(255, 255, 255); transform-origin: 261.038px 420.074px;" id="eldqqc6rtdzq4" class="animable"></path><path d="M265.92,426.85c-.15,.22-1.26-.3-2.69-.19-1.44,.07-2.48,.74-2.65,.54-.2-.15,.82-1.35,2.6-1.46,1.78-.13,2.92,.93,2.74,1.11Z" style="fill: rgb(255, 255, 255); transform-origin: 263.247px 426.483px;" id="el3hikjfz9lql" class="animable"></path><path d="M263.09,433.87c-.2-.14,.52-1.31,2.05-1.81,1.53-.51,2.79,0,2.7,.23-.06,.26-1.18,.21-2.42,.64-1.26,.4-2.13,1.11-2.33,.94Z" style="fill: rgb(255, 255, 255); transform-origin: 265.451px 432.868px;" id="elbzzvanfhdxp" class="animable"></path></g></g></g><defs>     <filter id="active" height="200%">         <feMorphology in="SourceAlpha" result="DILATED" operator="dilate" radius="2"></feMorphology>                <feFlood flood-color="#32DFEC" flood-opacity="1" result="PINK"></feFlood>        <feComposite in="PINK" in2="DILATED" operator="in" result="OUTLINE"></feComposite>        <feMerge>            <feMergeNode in="OUTLINE"></feMergeNode>            <feMergeNode in="SourceGraphic"></feMergeNode>        </feMerge>    </filter>    <filter id="hover" height="200%">        <feMorphology in="SourceAlpha" result="DILATED" operator="dilate" radius="2"></feMorphology>                <feFlood flood-color="#ff0000" flood-opacity="0.5" result="PINK"></feFlood>        <feComposite in="PINK" in2="DILATED" operator="in" result="OUTLINE"></feComposite>        <feMerge>            <feMergeNode in="OUTLINE"></feMergeNode>            <feMergeNode in="SourceGraphic"></feMergeNode>        </feMerge>            <feColorMatrix type="matrix" values="0   0   0   0   0                0   1   0   0   0                0   0   0   0   0                0   0   0   1   0 "></feColorMatrix>    </filter></defs></svg>